<svg xmlns="http://www.w3.org/2000/svg" width="375" viewBox="0 0 375 375" height="375" version="1.0"><defs><clipPath id="a"><path d="M 49 287 L 97 287 L 97 323.859375 L 49 323.859375 Z M 49 287"/></clipPath><clipPath id="b"><path d="M 2 76 L 375 76 L 375 323.859375 L 2 323.859375 Z M 2 76"/></clipPath><clipPath id="c"><path d="M 24 107 L 228 107 L 228 323.859375 L 24 323.859375 Z M 24 107"/></clipPath></defs><path fill="#FFF" d="M-37.5 -37.5H412.5V412.5H-37.5z"/><path fill="#FFF" d="M-37.5 -37.5H412.5V412.5H-37.5z"/><path fill="#FFF" d="M-37.5 -37.5H412.5V412.5H-37.5z"/><path fill="#FFF6E9" d="M 101.164062 95.15625 C 100.152344 89.320312 102.253906 83.089844 105.585938 78.632812 C 108.914062 74.183594 113.34375 71.226562 117.785156 68.652344 C 134.390625 59.039062 152.570312 53.726562 170.777344 53.058594 C 176.21875 52.863281 185.171875 51.132812 189.800781 55.40625 C 195.492188 60.660156 196.589844 71.9375 194.226562 79.753906 C 191.394531 89.078125 184.75 95.941406 177.761719 101.003906 C 159.636719 114.144531 137.265625 117.875 117.253906 111.085938 C 110.238281 108.707031 102.683594 103.910156 101.164062 95.15625 Z M 101.164062 95.15625"/><g clip-path="url(#a)"><path fill="#FFF6E9" d="M 96.621094 314.042969 C 96.613281 317.25 96.082031 320.316406 95.121094 323.160156 L 50.96875 323.074219 C 50.816406 322.941406 50.652344 322.820312 50.496094 322.6875 C 49.632812 319.953125 49.160156 317.011719 49.160156 313.949219 C 49.1875 299.484375 59.847656 287.726562 72.933594 287.757812 C 86.019531 287.785156 96.644531 299.578125 96.621094 314.042969 Z M 96.621094 314.042969"/></g><path fill="#FFF6E9" d="M 375.058594 179.667969 C 374.933594 187.300781 374.433594 194.964844 373.648438 202.597656 C 368.75 196.976562 361.878906 193.480469 354.261719 193.480469 C 339.386719 193.480469 327.320312 206.820312 327.320312 223.28125 C 327.320312 239.730469 339.386719 253.070312 354.261719 253.070312 C 358.597656 253.070312 362.703125 251.9375 366.324219 249.917969 C 364.832031 257.414062 363.109375 264.84375 360.949219 272.039062 C 358.773438 272.402344 356.539062 272.589844 354.261719 272.589844 C 329.675781 272.589844 309.671875 250.46875 309.671875 223.28125 C 309.671875 196.089844 329.675781 173.960938 354.261719 173.960938 C 361.761719 173.960938 368.851562 176.027344 375.058594 179.667969 Z M 375.058594 179.667969"/><g clip-path="url(#b)"><path fill="#FFF6E9" d="M 354.261719 278.34375 C 355.859375 278.34375 357.433594 278.261719 358.996094 278.085938 C 357.753906 281.722656 356.371094 285.277344 354.828125 288.746094 C 348.199219 303.683594 338.191406 316.953125 325.558594 323.625 L 101.621094 323.175781 C 102.378906 320.28125 102.785156 317.222656 102.792969 314.058594 C 102.820312 295.820312 89.429688 280.960938 72.941406 280.921875 C 56.457031 280.894531 43.015625 295.695312 42.988281 313.941406 C 42.988281 314.640625 43.007812 315.339844 43.046875 316.027344 C 28.171875 301.519531 16.445312 282.117188 9.578125 260.335938 C 1.105469 233.488281 0.0234375 203.171875 6.601562 175.511719 C 13.820312 145.027344 32.40625 116.421875 57.730469 110.640625 C 75.886719 106.46875 94.199219 114.371094 112.195312 119.386719 C 147.855469 129.375 185.507812 128.058594 220.722656 116.023438 C 237.023438 110.453125 253.375 103.421875 268.140625 93.59375 C 284.207031 82.898438 302.359375 73.746094 320.972656 77.441406 C 326.832031 78.605469 332.347656 81.03125 337.441406 84.449219 C 334.691406 89.441406 333.105469 95.300781 333.089844 101.554688 C 333.0625 119.792969 346.453125 134.660156 362.941406 134.691406 C 365.308594 134.691406 367.59375 134.390625 369.804688 133.824219 C 370.570312 136.5 371.222656 139.199219 371.792969 141.910156 C 373.921875 152.203125 374.90625 162.6875 375.050781 173.25 C 368.71875 170.007812 361.675781 168.210938 354.261719 168.210938 C 326.808594 168.210938 304.46875 192.914062 304.46875 223.28125 C 304.46875 253.640625 326.808594 278.34375 354.261719 278.34375 Z M 354.261719 278.34375"/></g><path fill="#EE4857" d="M 192.816406 179.027344 L 208.964844 249.988281 C 196.71875 245.109375 192.191406 250.746094 187.238281 251.570312 C 182.292969 252.394531 179.847656 250.859375 178.359375 249.097656 C 175.355469 245.546875 170.464844 235.683594 162.054688 240.15625 C 156.371094 243.179688 151.832031 246.605469 149.484375 248.507812 C 148.351562 249.425781 147.734375 249.988281 147.734375 249.988281 L 164.632812 175.765625 L 164.75 175.242188 L 157.953125 150.734375 L 147.734375 150.734375 C 147.734375 150.734375 151.503906 135 164.75 131.253906 C 164.75 131.253906 171.265625 137.320312 178.359375 137.320312 C 185.4375 137.320312 191.953125 131.253906 191.953125 131.253906 C 205.199219 135 208.964844 150.734375 208.964844 150.734375 L 198.753906 150.734375 L 191.953125 175.242188 Z M 192.816406 179.027344"/><path fill="#CA3F4C" d="M 164.632812 175.765625 L 164.75 175.242188 L 157.953125 150.734375 L 159.5625 147.140625 C 162.613281 156.421875 164.726562 166.152344 165.46875 175.898438 C 165.1875 175.867188 164.90625 175.828125 164.632812 175.765625 Z M 164.632812 175.765625"/><path fill="#CA3F4C" d="M 208.964844 249.988281 C 196.71875 245.109375 192.191406 250.746094 187.238281 251.570312 C 182.292969 252.394531 179.847656 250.859375 178.359375 249.097656 C 175.355469 245.546875 170.464844 235.683594 162.054688 240.15625 C 156.371094 243.179688 151.832031 246.605469 149.484375 248.507812 C 149.855469 248.003906 150.230469 247.507812 150.605469 247.015625 C 153.019531 243.84375 155.539062 240.632812 158.917969 238.511719 C 162.300781 236.394531 166.757812 235.558594 170.296875 237.394531 C 174.46875 239.5625 177.003906 245.761719 184.230469 247.335938 C 188.308594 248.222656 196.539062 245.472656 201.996094 242.90625 C 204.726562 241.625 200.003906 222.375 196.226562 210.917969 C 194.539062 205.796875 192.972656 200.609375 192.011719 195.300781 C 191.167969 190.652344 190.785156 185.890625 191.285156 181.1875 C 191.484375 179.289062 192.066406 178.769531 192.816406 179.027344 Z M 208.964844 249.988281"/><path d="M 184.636719 251.894531 C 181.902344 251.894531 179.851562 251 178.292969 249.15625 C 177.804688 248.582031 177.257812 247.824219 176.675781 247.019531 C 173.652344 242.839844 169.082031 236.527344 162.097656 240.234375 C 153.792969 244.648438 147.855469 250.003906 147.796875 250.054688 L 147.585938 250.25 L 147.648438 249.96875 L 164.65625 175.242188 L 157.882812 150.824219 L 147.621094 150.824219 L 147.648438 150.710938 C 147.65625 150.671875 148.625 146.714844 151.199219 142.351562 C 153.578125 138.324219 157.855469 133.109375 164.722656 131.167969 L 164.773438 131.152344 L 164.8125 131.1875 C 164.875 131.246094 171.382812 137.226562 178.363281 137.230469 C 185.324219 137.230469 191.828125 131.246094 191.894531 131.1875 L 191.929688 131.152344 L 191.980469 131.167969 C 198.847656 133.109375 203.125 138.324219 205.503906 142.351562 C 208.082031 146.714844 209.046875 150.671875 209.054688 150.710938 L 209.082031 150.824219 L 198.820312 150.824219 L 192.050781 175.242188 L 209.09375 250.136719 L 208.933594 250.074219 C 199.964844 246.5 195.148438 248.589844 191.273438 250.269531 C 189.890625 250.871094 188.578125 251.441406 187.257812 251.660156 C 186.320312 251.816406 185.449219 251.894531 184.636719 251.894531 Z M 166.246094 238.921875 C 171.039062 238.921875 174.414062 243.585938 176.824219 246.914062 C 177.402344 247.714844 177.949219 248.46875 178.429688 249.039062 C 179.675781 250.507812 181.9375 252.363281 187.226562 251.480469 C 188.527344 251.265625 189.828125 250.699219 191.203125 250.105469 C 195.082031 248.421875 199.90625 246.328125 208.839844 249.839844 L 191.863281 175.238281 L 191.867188 175.21875 L 198.683594 150.644531 L 208.851562 150.644531 C 208.476562 149.226562 204.394531 134.902344 191.980469 131.355469 C 191.429688 131.851562 185.117188 137.410156 178.363281 137.410156 C 171.589844 137.410156 165.273438 131.851562 164.726562 131.355469 C 152.308594 134.902344 148.230469 149.226562 147.855469 150.644531 L 158.019531 150.644531 L 158.039062 150.710938 L 164.84375 175.238281 L 164.835938 175.261719 L 147.886719 249.734375 C 149.019531 248.742188 154.566406 244.03125 162.011719 240.074219 C 163.535156 239.265625 164.941406 238.921875 166.246094 238.921875 Z M 166.246094 238.921875"/><path fill="#FDD621" d="M 193.960938 174.703125 C 193.960938 175.316406 193.476562 175.796875 192.867188 175.796875 L 164.210938 175.796875 C 163.617188 175.796875 163.113281 175.316406 163.113281 174.703125 C 163.113281 174.109375 163.617188 173.609375 164.210938 173.609375 L 192.867188 173.609375 C 193.476562 173.609375 193.960938 174.109375 193.960938 174.703125 Z M 193.960938 174.703125"/><path d="M 192.867188 175.886719 L 164.210938 175.886719 C 163.554688 175.886719 163.023438 175.355469 163.023438 174.703125 C 163.023438 174.058594 163.566406 173.519531 164.210938 173.519531 L 192.867188 173.519531 C 193.519531 173.519531 194.050781 174.050781 194.050781 174.703125 C 194.050781 175.367188 193.53125 175.886719 192.867188 175.886719 Z M 164.210938 173.699219 C 163.664062 173.699219 163.203125 174.160156 163.203125 174.703125 C 163.203125 175.257812 163.65625 175.707031 164.210938 175.707031 L 192.867188 175.707031 C 193.429688 175.707031 193.871094 175.265625 193.871094 174.703125 C 193.871094 174.148438 193.417969 173.699219 192.867188 173.699219 Z M 164.210938 173.699219"/><path d="M 198.671875 150.773438 L 196.710938 146.515625 L 196.878906 146.441406 L 198.835938 150.695312 Z M 198.671875 150.773438"/><path d="M 157.988281 150.773438 L 157.824219 150.695312 L 159.78125 146.441406 L 159.949219 146.515625 Z M 157.988281 150.773438"/><path fill="#FFF" d="M 201.421875 145.199219 C 201.207031 145.199219 201 145.089844 200.882812 144.894531 C 200.09375 143.574219 199.085938 142.378906 197.886719 141.339844 C 197.625 141.117188 197.597656 140.722656 197.824219 140.460938 C 198.050781 140.199219 198.445312 140.171875 198.707031 140.398438 C 200.003906 141.519531 201.101562 142.820312 201.957031 144.253906 C 202.136719 144.550781 202.039062 144.933594 201.742188 145.109375 C 201.640625 145.171875 201.53125 145.199219 201.421875 145.199219 Z M 201.421875 145.199219"/><path fill="#FFF" d="M 201.421875 145.144531 C 201.207031 145.144531 201 145.035156 200.882812 144.839844 C 200.09375 143.519531 199.085938 142.324219 197.886719 141.285156 C 197.625 141.058594 197.597656 140.664062 197.824219 140.40625 C 198.050781 140.144531 198.445312 140.117188 198.707031 140.339844 C 200.003906 141.464844 201.101562 142.761719 201.957031 144.199219 C 202.136719 144.492188 202.039062 144.878906 201.742188 145.054688 C 201.640625 145.113281 201.53125 145.144531 201.421875 145.144531 Z M 201.421875 145.144531"/><path fill="#FFF" d="M 196.472656 140.132812 C 196.355469 140.132812 196.238281 140.101562 196.132812 140.035156 C 194.269531 138.835938 192.160156 138.058594 190.03125 137.785156 C 189.691406 137.742188 189.449219 137.425781 189.492188 137.085938 C 189.535156 136.742188 189.855469 136.507812 190.191406 136.546875 C 192.5 136.84375 194.789062 137.6875 196.808594 138.980469 C 197.101562 139.167969 197.183594 139.554688 197 139.84375 C 196.878906 140.03125 196.675781 140.132812 196.472656 140.132812 Z M 196.472656 140.132812"/><path fill="#FFF" d="M 158.605469 223.246094 C 158.539062 223.246094 158.472656 223.234375 158.40625 223.210938 C 158.078125 223.101562 157.902344 222.75 158.011719 222.421875 L 163.335938 206.535156 C 163.445312 206.207031 163.800781 206.03125 164.128906 206.140625 C 164.453125 206.25 164.632812 206.601562 164.523438 206.929688 L 159.199219 222.816406 C 159.109375 223.078125 158.867188 223.246094 158.605469 223.246094 Z M 158.605469 223.246094" fill-opacity=".298"/><path fill="#FFF" d="M 165.46875 202.757812 C 165.40625 202.757812 165.339844 202.746094 165.273438 202.726562 C 164.945312 202.617188 164.769531 202.261719 164.878906 201.933594 L 168.386719 191.460938 C 168.496094 191.132812 168.851562 190.960938 169.179688 191.066406 C 169.503906 191.175781 169.683594 191.53125 169.574219 191.859375 L 166.0625 202.332031 C 165.976562 202.59375 165.730469 202.757812 165.46875 202.757812 Z M 165.46875 202.757812" fill-opacity=".298"/><path fill="#4776F8" d="M 157.566406 262.675781 L 129.285156 262.675781 L 124.363281 152.179688 L 124.175781 147.925781 L 123.984375 152.261719 L 119.074219 262.675781 L 90.792969 262.675781 L 103.757812 126.539062 L 144.601562 126.539062 Z M 157.566406 262.675781"/><path fill="#2351E2" d="M 123.984375 152.261719 L 119.074219 262.675781 L 116.296875 262.675781 C 115.496094 261.585938 114.820312 260.40625 114.277344 259.183594 C 112.671875 255.546875 114.742188 214.964844 116.910156 197.742188 C 118 189.101562 119.144531 161.730469 120.613281 157.664062 C 121.085938 156.351562 122.453125 152.859375 123.984375 152.261719 Z M 123.984375 152.261719"/><path fill="#2351E2" d="M 135.121094 262.675781 L 129.285156 262.675781 L 124.363281 152.179688 C 124.925781 152.148438 125.496094 152.535156 126.054688 153.585938 C 128.140625 157.546875 128.167969 163.546875 128.324219 167.910156 C 128.503906 172.84375 128.28125 177.78125 128.222656 182.710938 C 127.96875 205.707031 131.917969 228.507812 135.558594 251.210938 C 136.171875 255.039062 136.710938 259.21875 135.121094 262.675781 Z M 135.121094 262.675781"/><path fill="#2351E2" d="M 101.53125 148.582031 C 103.46875 148.171875 108.484375 146.273438 110.992188 139.902344 C 110.960938 139.847656 110.929688 139.796875 110.890625 139.746094 L 111.390625 138.804688 L 111.398438 138.796875 C 110.421875 138.632812 109.554688 137.917969 108.847656 138.597656 C 108.132812 139.285156 106.671875 141.871094 106.011719 142.597656 C 103.164062 145.703125 101.5 147.351562 101.53125 148.582031 Z M 101.53125 148.582031"/><path d="M 101.59375 148.777344 L 101.464844 148.058594 C 101.496094 148.054688 101.550781 148.046875 101.632812 148.039062 C 101.820312 148.023438 102.175781 147.992188 102.640625 147.886719 C 104.605469 147.46875 108.257812 145.859375 110.652344 139.769531 C 110.789062 139.425781 110.925781 139.0625 111.046875 138.691406 L 111.125 138.46875 C 111.171875 138.324219 111.21875 138.183594 111.261719 138.035156 L 111.960938 138.246094 C 111.914062 138.398438 111.863281 138.550781 111.816406 138.695312 L 111.714844 138.988281 C 111.59375 139.351562 111.460938 139.703125 111.332031 140.035156 C 108.808594 146.441406 104.898438 148.148438 102.792969 148.597656 C 102.285156 148.710938 101.90625 148.746094 101.699219 148.765625 Z M 101.59375 148.777344"/><path fill="#2351E2" d="M 146.683594 148.582031 C 144.746094 148.171875 139.730469 146.273438 137.222656 139.902344 C 137.253906 139.847656 137.285156 139.796875 137.324219 139.746094 L 136.824219 138.804688 L 136.816406 138.796875 C 137.792969 138.632812 138.660156 137.917969 139.367188 138.597656 C 140.082031 139.285156 141.542969 141.871094 142.203125 142.597656 C 145.050781 145.703125 146.714844 147.351562 146.683594 148.582031 Z M 146.683594 148.582031"/><path d="M 157.964844 263.039062 L 128.9375 263.039062 L 128.921875 262.691406 L 124.175781 156.109375 L 119.421875 263.039062 L 90.398438 263.039062 L 90.433594 262.640625 L 103.429688 126.175781 L 144.929688 126.175781 Z M 129.632812 262.3125 L 157.164062 262.3125 L 144.269531 126.902344 L 104.09375 126.902344 L 91.195312 262.3125 L 118.726562 262.3125 L 123.8125 147.90625 L 124.539062 147.90625 Z M 129.632812 262.3125"/><path d="M 146.617188 148.773438 L 146.515625 148.765625 C 146.308594 148.746094 145.929688 148.710938 145.417969 148.597656 C 143.3125 148.148438 139.40625 146.441406 136.882812 140.035156 C 136.753906 139.707031 136.625 139.359375 136.503906 139 L 136.402344 138.707031 C 136.355469 138.558594 136.304688 138.402344 136.253906 138.246094 L 136.953125 138.035156 C 136.996094 138.1875 137.046875 138.335938 137.09375 138.480469 L 137.167969 138.691406 C 137.289062 139.0625 137.425781 139.425781 137.5625 139.769531 C 139.957031 145.859375 143.609375 147.46875 145.570312 147.886719 C 146.039062 147.992188 146.390625 148.023438 146.582031 148.039062 C 146.664062 148.046875 146.71875 148.054688 146.75 148.058594 Z M 146.617188 148.773438"/><path fill="#FFF" d="M 139.898438 216.222656 C 140.039062 216.847656 140.292969 217.597656 140.925781 217.722656 C 141.570312 217.851562 142.097656 217.234375 142.433594 216.667969 C 144.667969 212.925781 148.234375 198.316406 140.539062 198.082031 C 133.085938 197.851562 139.09375 212.570312 139.898438 216.222656 Z M 139.898438 216.222656" fill-opacity=".298"/><path fill="#FFF" d="M 104.101562 202.496094 C 103.542969 202.453125 103.117188 201.980469 103.132812 201.417969 L 103.523438 188.664062 C 103.542969 188.082031 104.027344 187.625 104.609375 187.644531 C 105.210938 187.675781 105.648438 188.144531 105.632812 188.726562 L 105.238281 201.480469 C 105.222656 202.0625 104.734375 202.519531 104.152344 202.5 C 104.136719 202.5 104.117188 202.5 104.101562 202.496094 Z M 104.101562 202.496094"/><path fill="#FFF" d="M 104.625 185.371094 C 104.070312 185.328125 103.640625 184.851562 103.660156 184.289062 L 103.792969 179.917969 C 103.8125 179.335938 104.296875 178.878906 104.878906 178.898438 C 105.480469 178.9375 105.917969 179.398438 105.898438 179.980469 L 105.765625 184.355469 C 105.746094 184.933594 105.261719 185.390625 104.679688 185.375 C 104.660156 185.375 104.644531 185.371094 104.625 185.371094 Z M 104.625 185.371094"/><path fill="#FC9C04" d="M 77.46875 129.726562 C 77.46875 129.726562 69.117188 132.527344 64.042969 132.757812 C 59.433594 132.964844 50.617188 128.542969 50.617188 128.542969 C 59.628906 155.011719 68.582031 156.742188 77.46875 129.726562 Z M 77.46875 129.726562"/><path d="M 64.457031 149.570312 C 59.703125 149.570312 55.0625 142.730469 50.269531 128.660156 C 50.222656 128.519531 50.265625 128.367188 50.375 128.269531 C 50.488281 128.171875 50.644531 128.152344 50.777344 128.21875 C 50.867188 128.261719 59.566406 132.597656 64.027344 132.394531 C 68.992188 132.171875 77.269531 129.410156 77.351562 129.382812 C 77.480469 129.339844 77.625 129.371094 77.726562 129.46875 C 77.820312 129.566406 77.855469 129.710938 77.8125 129.839844 C 73.457031 143.089844 69.09375 149.542969 64.480469 149.570312 C 64.472656 149.570312 64.464844 149.570312 64.457031 149.570312 Z M 51.242188 129.25 C 55.761719 142.25 60.203125 148.84375 64.457031 148.84375 C 64.464844 148.84375 64.46875 148.84375 64.476562 148.84375 C 68.605469 148.820312 72.78125 142.582031 76.894531 130.296875 C 74.78125 130.972656 68.335938 132.929688 64.058594 133.121094 C 60.164062 133.300781 53.535156 130.335938 51.242188 129.25 Z M 51.242188 129.25"/><path fill="#FDD621" d="M 110.527344 149.457031 L 99.140625 166.148438 C 99.023438 166.332031 98.785156 166.394531 98.585938 166.296875 L 90.539062 162.480469 C 90.25 162.339844 89.910156 162.542969 89.898438 162.867188 L 88.550781 202.0625 C 88.542969 202.300781 88.34375 202.492188 88.101562 202.492188 L 41.507812 202.492188 C 41.269531 202.492188 41.070312 202.300781 41.0625 202.0625 L 41.058594 201.761719 L 39.863281 161.519531 C 39.847656 161.1875 39.496094 160.984375 39.203125 161.140625 L 28.414062 166.957031 C 28.230469 167.054688 27.992188 167.011719 27.859375 166.84375 L 16.640625 152.980469 C 16.480469 152.78125 16.519531 152.488281 16.726562 152.339844 L 50.007812 128.460938 C 50.203125 128.320312 50.46875 128.363281 50.617188 128.542969 C 50.617188 128.542969 58.820312 139.015625 64.125 139.125 C 69.238281 139.238281 77.464844 129.730469 77.464844 129.730469 C 77.613281 129.570312 77.84375 129.527344 78.027344 129.640625 L 110.386719 148.824219 C 110.457031 148.867188 110.507812 148.921875 110.542969 148.984375 L 110.550781 148.992188 C 110.628906 149.132812 110.628906 149.316406 110.527344 149.457031 Z M 110.527344 149.457031"/><path fill="#FC9C04" d="M 110.527344 149.457031 L 99.140625 166.148438 C 99.023438 166.332031 98.785156 166.394531 98.585938 166.296875 L 90.539062 162.480469 C 90.25 162.339844 89.910156 162.542969 89.898438 162.867188 L 88.550781 202.0625 C 88.542969 202.300781 88.34375 202.492188 88.101562 202.492188 L 41.507812 202.492188 C 41.269531 202.492188 41.070312 202.300781 41.0625 202.0625 L 41.058594 201.761719 C 48.433594 200.300781 55.816406 198.84375 63.191406 197.382812 C 68.914062 196.246094 74.929688 194.976562 79.3125 191.101562 C 82.71875 188.09375 84.761719 183.769531 85.765625 179.328125 C 86.773438 174.878906 86.800781 170.28125 86.730469 165.730469 C 86.6875 162.972656 86.695312 159.960938 88.429688 157.820312 C 90.640625 155.082031 94.660156 154.9375 98.164062 154.675781 C 101.671875 154.417969 105.394531 152.199219 107.769531 149.597656 C 108.175781 149.160156 108.574219 148.71875 108.976562 148.277344 C 109.523438 148.507812 110.042969 148.738281 110.542969 148.984375 L 110.550781 148.992188 C 110.628906 149.132812 110.628906 149.316406 110.527344 149.457031 Z M 110.527344 149.457031"/><path d="M 88.101562 202.855469 L 41.507812 202.855469 C 41.066406 202.855469 40.714844 202.511719 40.699219 202.070312 L 39.496094 161.53125 C 39.496094 161.492188 39.476562 161.472656 39.457031 161.460938 C 39.4375 161.453125 39.410156 161.441406 39.378906 161.460938 L 28.589844 167.273438 C 28.246094 167.457031 27.820312 167.375 27.574219 167.070312 L 16.355469 153.210938 C 16.21875 153.039062 16.15625 152.8125 16.183594 152.59375 C 16.214844 152.375 16.335938 152.171875 16.515625 152.042969 L 49.796875 128.164062 C 50.144531 127.914062 50.628906 127.980469 50.898438 128.316406 C 50.984375 128.421875 59.0625 138.652344 64.136719 138.761719 C 64.164062 138.761719 64.191406 138.761719 64.21875 138.761719 C 69.109375 138.761719 77.113281 129.582031 77.191406 129.488281 C 77.449219 129.195312 77.882812 129.128906 78.214844 129.328125 L 110.570312 148.507812 C 110.761719 148.621094 110.898438 148.8125 110.945312 149.027344 C 110.996094 149.246094 110.949219 149.476562 110.824219 149.660156 L 99.445312 166.351562 C 99.21875 166.683594 98.792969 166.800781 98.429688 166.628906 L 90.378906 162.808594 C 90.347656 162.792969 90.320312 162.800781 90.304688 162.8125 C 90.285156 162.820312 90.265625 162.84375 90.265625 162.878906 L 88.910156 202.074219 C 88.894531 202.511719 88.539062 202.855469 88.101562 202.855469 Z M 39.414062 160.722656 C 39.554688 160.722656 39.695312 160.757812 39.820312 160.832031 C 40.066406 160.972656 40.214844 161.226562 40.226562 161.507812 L 41.425781 202.050781 C 41.429688 202.09375 41.464844 202.128906 41.507812 202.128906 L 88.101562 202.128906 C 88.148438 202.128906 88.183594 202.09375 88.183594 202.050781 L 89.535156 162.855469 C 89.546875 162.582031 89.691406 162.332031 89.925781 162.191406 C 90.15625 162.050781 90.445312 162.035156 90.691406 162.152344 L 98.742188 165.972656 C 98.777344 165.988281 98.820312 165.976562 98.84375 165.945312 L 110.222656 149.25 C 110.242188 149.226562 110.238281 149.203125 110.238281 149.1875 L 77.84375 129.953125 C 77.808594 129.929688 77.765625 129.9375 77.742188 129.96875 C 77.40625 130.355469 69.4375 139.488281 64.214844 139.488281 C 64.183594 139.488281 64.152344 139.488281 64.121094 139.488281 C 58.703125 139.371094 50.667969 129.199219 50.328125 128.765625 C 50.304688 128.738281 50.257812 128.730469 50.222656 128.757812 L 16.9375 152.636719 L 16.921875 152.753906 L 28.140625 166.613281 C 28.167969 166.644531 28.207031 166.652344 28.242188 166.636719 L 39.03125 160.820312 C 39.152344 160.753906 39.285156 160.722656 39.414062 160.722656 Z M 39.414062 160.722656"/><path fill="#FFF" d="M 47.070312 190.183594 C 46.511719 190.183594 46.046875 189.75 46.019531 189.183594 L 45.375 176.441406 C 45.34375 175.863281 45.789062 175.367188 46.371094 175.339844 C 46.976562 175.324219 47.449219 175.753906 47.476562 176.335938 L 48.125 189.078125 C 48.152344 189.660156 47.707031 190.15625 47.125 190.183594 C 47.105469 190.183594 47.089844 190.183594 47.070312 190.183594 Z M 47.070312 190.183594"/><path fill="#FFF" d="M 46.203125 173.074219 C 45.644531 173.074219 45.179688 172.636719 45.152344 172.074219 L 44.929688 167.703125 C 44.902344 167.125 45.347656 166.628906 45.929688 166.601562 C 46.53125 166.589844 47.003906 167.015625 47.035156 167.597656 L 47.257812 171.964844 C 47.285156 172.546875 46.839844 173.042969 46.257812 173.070312 C 46.238281 173.070312 46.222656 173.074219 46.203125 173.074219 Z M 46.203125 173.074219"/><g clip-path="url(#c)"><path fill="#EFCDA5" d="M 227.550781 323.003906 L 24.914062 323.003906 L 24.914062 130.046875 C 24.914062 117.363281 35.242188 107.046875 47.9375 107.046875 L 204.527344 107.046875 C 217.222656 107.046875 227.550781 117.363281 227.550781 130.046875 Z M 27.097656 320.820312 L 225.367188 320.820312 L 225.367188 130.046875 C 225.367188 118.566406 216.019531 109.230469 204.527344 109.230469 L 47.9375 109.230469 C 36.445312 109.230469 27.097656 118.566406 27.097656 130.046875 Z M 27.097656 320.820312"/></g><path fill="#EFCDA5" d="M 117.605469 321.914062 L 115.421875 321.914062 L 115.421875 287.496094 C 115.421875 283.625 112.273438 280.476562 108.398438 280.476562 L 26.007812 280.476562 L 26.007812 278.296875 L 108.398438 278.296875 C 113.476562 278.296875 117.605469 282.425781 117.605469 287.496094 Z M 117.605469 321.914062"/><path d="M 64.476562 121.398438 L 63.75 121.398438 L 63.75 103.753906 C 63.75 98.886719 59.785156 94.925781 54.910156 94.925781 C 50.039062 94.925781 46.074219 98.886719 46.074219 103.753906 L 46.074219 107.230469 L 45.347656 107.230469 L 45.347656 103.753906 C 45.347656 98.484375 49.636719 94.199219 54.910156 94.199219 C 60.1875 94.199219 64.476562 98.484375 64.476562 103.753906 Z M 64.476562 121.398438"/><path d="M 79.136719 134.398438 L 78.410156 134.398438 L 78.410156 123.847656 C 78.410156 122.695312 77.472656 121.761719 76.320312 121.761719 L 51.90625 121.761719 C 50.753906 121.761719 49.816406 122.695312 49.816406 123.847656 L 49.816406 134.398438 L 49.089844 134.398438 L 49.089844 123.847656 C 49.089844 122.296875 50.355469 121.03125 51.90625 121.03125 L 76.320312 121.03125 C 77.875 121.03125 79.136719 122.296875 79.136719 123.847656 Z M 79.136719 134.398438"/><path d="M 80.015625 134.398438 C 80.015625 135.078125 79.457031 135.636719 78.769531 135.636719 C 78.089844 135.636719 77.53125 135.078125 77.53125 134.398438 C 77.53125 133.710938 78.089844 133.15625 78.769531 133.15625 C 79.457031 133.15625 80.015625 133.710938 80.015625 134.398438 Z M 80.015625 134.398438"/><path d="M 50.695312 134.398438 C 50.695312 135.078125 50.136719 135.636719 49.449219 135.636719 C 48.769531 135.636719 48.210938 135.078125 48.210938 134.398438 C 48.210938 133.710938 48.769531 133.15625 49.449219 133.15625 C 50.136719 133.15625 50.695312 133.710938 50.695312 134.398438 Z M 50.695312 134.398438"/><path d="M 124.398438 121.398438 L 123.671875 121.398438 L 123.671875 103.753906 C 123.671875 98.886719 119.707031 94.925781 114.832031 94.925781 C 109.960938 94.925781 105.996094 98.886719 105.996094 103.753906 L 105.996094 107.230469 L 105.265625 107.230469 L 105.265625 103.753906 C 105.265625 98.484375 109.558594 94.199219 114.832031 94.199219 C 120.105469 94.199219 124.398438 98.484375 124.398438 103.753906 Z M 124.398438 121.398438"/><path d="M 139.058594 134.398438 L 138.332031 134.398438 L 138.332031 123.847656 C 138.332031 122.695312 137.394531 121.761719 136.238281 121.761719 L 111.828125 121.761719 C 110.675781 121.761719 109.738281 122.695312 109.738281 123.847656 L 109.738281 134.398438 L 109.011719 134.398438 L 109.011719 123.847656 C 109.011719 122.296875 110.273438 121.03125 111.828125 121.03125 L 136.238281 121.03125 C 137.792969 121.03125 139.058594 122.296875 139.058594 123.847656 Z M 139.058594 134.398438"/><path d="M 139.9375 134.398438 C 139.9375 135.078125 139.378906 135.636719 138.691406 135.636719 C 138.011719 135.636719 137.453125 135.078125 137.453125 134.398438 C 137.453125 133.710938 138.011719 133.15625 138.691406 133.15625 C 139.378906 133.15625 139.9375 133.710938 139.9375 134.398438 Z M 139.9375 134.398438"/><path d="M 110.617188 134.398438 C 110.617188 135.078125 110.058594 135.636719 109.371094 135.636719 C 108.6875 135.636719 108.132812 135.078125 108.132812 134.398438 C 108.132812 133.710938 108.6875 133.15625 109.371094 133.15625 C 110.058594 133.15625 110.617188 133.710938 110.617188 134.398438 Z M 110.617188 134.398438"/><path d="M 178.632812 121.398438 L 177.902344 121.398438 L 177.902344 103.753906 C 177.902344 98.886719 173.9375 94.925781 169.066406 94.925781 C 164.191406 94.925781 160.230469 98.886719 160.230469 103.753906 L 160.230469 107.230469 L 159.5 107.230469 L 159.5 103.753906 C 159.5 98.484375 163.792969 94.199219 169.066406 94.199219 C 174.339844 94.199219 178.632812 98.484375 178.632812 103.753906 Z M 178.632812 121.398438"/><path d="M 193.292969 134.398438 L 192.566406 134.398438 L 192.566406 123.847656 C 192.566406 122.695312 191.625 121.761719 190.472656 121.761719 L 166.0625 121.761719 C 164.910156 121.761719 163.972656 122.695312 163.972656 123.847656 L 163.972656 134.398438 L 163.242188 134.398438 L 163.242188 123.847656 C 163.242188 122.296875 164.507812 121.03125 166.0625 121.03125 L 190.472656 121.03125 C 192.027344 121.03125 193.292969 122.296875 193.292969 123.847656 Z M 193.292969 134.398438"/><path d="M 194.171875 134.398438 C 194.171875 135.078125 193.613281 135.636719 192.925781 135.636719 C 192.242188 135.636719 191.6875 135.078125 191.6875 134.398438 C 191.6875 133.710938 192.242188 133.15625 192.925781 133.15625 C 193.613281 133.15625 194.171875 133.710938 194.171875 134.398438 Z M 194.171875 134.398438"/><path d="M 164.847656 134.398438 C 164.847656 135.078125 164.292969 135.636719 163.605469 135.636719 C 162.921875 135.636719 162.367188 135.078125 162.367188 134.398438 C 162.367188 133.710938 162.921875 133.15625 163.605469 133.15625 C 164.292969 133.15625 164.847656 133.710938 164.847656 134.398438 Z M 164.847656 134.398438"/><path fill="#003144" d="M 325.035156 168.269531 C 322.027344 170.261719 318.550781 171.511719 314.972656 171.976562 C 314.265625 170.273438 312.394531 169.1875 310.535156 168.871094 C 308.492188 168.515625 306.410156 168.863281 304.34375 168.976562 C 302.273438 169.082031 300.058594 168.894531 298.40625 167.648438 C 295.921875 165.777344 295.382812 162.035156 292.796875 160.304688 C 290.066406 158.476562 285.960938 159.527344 283.550781 157.292969 C 282.199219 156.035156 281.792969 154.089844 281.457031 152.277344 C 280.257812 145.777344 279.058594 139.261719 278.542969 132.667969 C 277.976562 125.394531 278.28125 117.90625 280.878906 111.082031 C 283.476562 104.265625 288.46875 101.046875 295.335938 98.578125 C 302.214844 96.109375 310.921875 95.0625 315.242188 100.945312 C 319.523438 106.777344 319.140625 115.179688 323.78125 120.734375 C 326.011719 123.402344 329.164062 125.101562 331.941406 127.195312 C 334.722656 129.296875 337.3125 132.152344 337.527344 135.625 C 337.6875 138.15625 336.5625 140.566406 336.085938 143.050781 C 335.601562 145.558594 335.777344 148.144531 335.542969 150.691406 C 334.898438 157.71875 330.921875 164.371094 325.035156 168.269531 Z M 325.035156 168.269531"/><path fill="#05253F" d="M 286.941406 106.496094 C 288.152344 106.320312 289.300781 106.980469 290.425781 107.46875 C 292.753906 108.472656 295.386719 108.773438 297.882812 108.3125 C 300.015625 107.917969 302.023438 106.992188 304.152344 106.578125 C 306.28125 106.164062 308.726562 106.367188 310.257812 107.90625 C 311.203125 108.855469 311.667969 110.1875 311.882812 111.511719 C 312.097656 112.832031 312.09375 114.179688 312.257812 115.511719 C 312.664062 118.769531 314.113281 121.890625 316.339844 124.308594 C 317.207031 125.25 318.195312 126.085938 319.265625 126.789062 C 325.109375 130.644531 328.773438 137.066406 328.84375 144.0625 C 328.847656 144.167969 328.847656 144.269531 328.847656 144.375 C 328.847656 146.046875 328.699219 147.746094 328.121094 149.3125 C 327.542969 150.882812 326.5 152.328125 325.03125 153.132812 C 323.476562 153.980469 321.578125 154.046875 319.863281 153.601562 C 318.089844 153.140625 316.488281 152.179688 315 151.113281 C 312.328125 149.203125 309.984375 146.875 307.992188 144.261719 C 301.527344 135.789062 296.945312 126.109375 292.769531 116.304688 C 292.53125 115.742188 292.363281 114.9375 292.902344 114.640625 C 292.132812 113.140625 290.964844 111.949219 289.484375 111.148438 C 288.71875 110.730469 287.886719 110.4375 287.144531 109.976562 C 286.402344 109.519531 285.726562 108.855469 285.53125 108.003906 C 285.4375 107.597656 285.46875 107.140625 285.714844 106.800781 C 285.957031 106.460938 286.574219 106.296875 286.941406 106.496094 Z M 286.941406 106.496094"/><path d="M 314.972656 172.15625 C 314.898438 172.15625 314.832031 172.113281 314.804688 172.042969 C 314.058594 170.253906 312.09375 169.320312 310.503906 169.050781 C 309 168.789062 307.4375 168.917969 305.925781 169.042969 C 305.402344 169.085938 304.875 169.128906 304.351562 169.15625 C 301.636719 169.296875 299.714844 168.863281 298.296875 167.792969 C 297.058594 166.863281 296.292969 165.476562 295.546875 164.136719 C 294.746094 162.6875 293.988281 161.324219 292.695312 160.457031 C 291.457031 159.628906 289.890625 159.402344 288.371094 159.179688 C 286.59375 158.921875 284.757812 158.65625 283.429688 157.425781 C 281.976562 156.078125 281.574219 153.898438 281.28125 152.308594 C 280.097656 145.917969 278.878906 139.308594 278.363281 132.679688 C 277.6875 124.023438 278.457031 116.9375 280.710938 111.019531 C 283.570312 103.507812 289.398438 100.519531 295.273438 98.410156 C 299.636719 96.84375 310.324219 93.945312 315.386719 100.835938 C 317.464844 103.664062 318.464844 107.128906 319.433594 110.480469 C 320.464844 114.0625 321.535156 117.761719 323.921875 120.617188 C 325.488281 122.496094 327.5625 123.917969 329.566406 125.292969 C 330.390625 125.859375 331.242188 126.441406 332.050781 127.050781 C 335.621094 129.75 337.523438 132.632812 337.710938 135.613281 C 337.816406 137.320312 337.347656 138.988281 336.890625 140.601562 C 336.660156 141.414062 336.421875 142.253906 336.265625 143.082031 C 335.96875 144.621094 335.921875 146.21875 335.875 147.765625 C 335.84375 148.730469 335.816406 149.730469 335.726562 150.707031 C 335.070312 157.839844 331.113281 164.464844 325.136719 168.421875 C 322.164062 170.390625 318.65625 171.683594 314.996094 172.15625 C 314.988281 172.15625 314.980469 172.15625 314.972656 172.15625 Z M 308.558594 168.535156 C 309.230469 168.535156 309.902344 168.574219 310.566406 168.691406 C 312.214844 168.972656 314.246094 169.933594 315.082031 171.777344 C 318.640625 171.296875 322.046875 170.035156 324.9375 168.117188 C 330.734375 164.277344 334.730469 157.59375 335.363281 150.675781 C 335.453125 149.707031 335.480469 148.714844 335.511719 147.753906 C 335.558594 146.195312 335.605469 144.578125 335.90625 143.015625 C 336.070312 142.167969 336.308594 141.324219 336.539062 140.503906 C 336.988281 138.921875 337.449219 137.28125 337.347656 135.636719 C 337.167969 132.765625 335.3125 129.972656 331.832031 127.34375 C 331.03125 126.738281 330.183594 126.15625 329.359375 125.589844 C 327.335938 124.203125 325.242188 122.765625 323.640625 120.851562 C 321.207031 117.9375 320.128906 114.199219 319.082031 110.582031 C 318.125 107.261719 317.132812 103.828125 315.09375 101.050781 C 310.175781 94.355469 299.683594 97.210938 295.398438 98.75 C 289.605469 100.832031 283.855469 103.777344 281.046875 111.148438 C 278.816406 117.015625 278.058594 124.050781 278.726562 132.652344 C 279.238281 139.261719 280.457031 145.863281 281.636719 152.242188 C 282.007812 154.242188 282.414062 155.988281 283.675781 157.160156 C 284.921875 158.3125 286.621094 158.558594 288.421875 158.820312 C 289.980469 159.046875 291.59375 159.28125 292.898438 160.15625 C 294.265625 161.070312 295.078125 162.539062 295.867188 163.960938 C 296.59375 165.265625 297.339844 166.617188 298.515625 167.503906 C 299.863281 168.519531 301.710938 168.929688 304.332031 168.792969 C 304.851562 168.765625 305.375 168.722656 305.894531 168.679688 C 306.773438 168.609375 307.664062 168.535156 308.558594 168.535156 Z M 308.558594 168.535156"/><path fill="#FFF" d="M 325.664062 128.097656 C 325.996094 128.171875 326.351562 127.964844 326.421875 127.585938 C 326.472656 127.308594 326.304688 127.042969 326.058594 126.910156 C 324.324219 126.007812 322.804688 124.664062 321.660156 123.027344 C 321.460938 122.742188 321.066406 122.671875 320.78125 122.871094 C 320.5 123.070312 320.429688 123.460938 320.628906 123.746094 C 321.898438 125.558594 323.585938 127.042969 325.507812 128.042969 C 325.558594 128.070312 325.613281 128.085938 325.664062 128.097656 Z M 325.664062 128.097656" fill-opacity=".298"/><path fill="#FFD8C8" d="M 252.144531 207.066406 C 254.355469 206.53125 259.300781 201.765625 259.542969 201.765625 L 254.597656 195.660156 C 243.097656 199.804688 238.792969 210.308594 252.144531 207.066406 Z M 252.144531 207.066406"/><path d="M 247.816406 207.851562 C 245.597656 207.851562 244.191406 207.191406 243.804688 205.902344 C 242.964844 203.117188 247.375 198.070312 254.535156 195.488281 C 254.609375 195.460938 254.691406 195.484375 254.738281 195.546875 L 259.683594 201.652344 C 259.726562 201.707031 259.734375 201.78125 259.703125 201.84375 C 259.679688 201.894531 259.636719 201.929688 259.585938 201.941406 C 259.476562 202.003906 259.007812 202.40625 258.511719 202.828125 C 256.871094 204.234375 253.820312 206.847656 252.1875 207.242188 L 252.144531 207.066406 L 252.1875 207.242188 C 250.507812 207.652344 249.039062 207.851562 247.816406 207.851562 Z M 254.539062 195.875 C 247.746094 198.363281 243.382812 203.234375 244.152344 205.796875 C 244.691406 207.585938 247.589844 207.984375 252.101562 206.890625 C 253.652344 206.515625 256.660156 203.9375 258.277344 202.550781 C 258.8125 202.09375 259.101562 201.847656 259.269531 201.722656 Z M 254.539062 195.875"/><path fill="#FFD8C8" d="M 254.597656 195.660156 C 254.597656 195.660156 239.296875 193.820312 239.121094 196.617188 C 238.917969 199.828125 251.609375 200.144531 251.910156 199.703125 Z M 254.597656 195.660156"/><path d="M 246.792969 200.078125 C 246.789062 200.078125 246.78125 200.078125 246.777344 200.078125 C 246.472656 200.058594 239.300781 199.53125 238.941406 196.636719 C 238.90625 196.363281 238.996094 196.113281 239.207031 195.902344 C 241.140625 193.949219 254.070312 195.414062 254.621094 195.476562 C 254.71875 195.488281 254.789062 195.582031 254.78125 195.679688 C 254.769531 195.777344 254.6875 195.847656 254.578125 195.839844 C 249.984375 195.3125 240.914062 194.695312 239.464844 196.15625 C 239.332031 196.289062 239.28125 196.429688 239.300781 196.59375 C 239.625 199.195312 246.730469 199.710938 246.804688 199.714844 C 246.90625 199.722656 246.980469 199.808594 246.972656 199.910156 C 246.964844 200.003906 246.886719 200.078125 246.792969 200.078125 Z M 246.792969 200.078125"/><path d="M 258.074219 217.226562 C 257.984375 217.226562 257.90625 217.160156 257.894531 217.070312 C 257.863281 216.863281 254.738281 196.15625 245.585938 195.992188 C 245.542969 195.992188 245.5 195.992188 245.457031 195.992188 C 236.433594 195.992188 234.746094 212.90625 234.730469 213.078125 C 234.71875 213.175781 234.625 213.242188 234.53125 213.242188 C 234.429688 213.230469 234.359375 213.144531 234.367188 213.042969 C 234.433594 212.328125 236.105469 195.628906 245.453125 195.628906 C 245.5 195.628906 245.546875 195.628906 245.59375 195.628906 C 255.050781 195.796875 258.125 216.152344 258.253906 217.019531 C 258.265625 217.117188 258.199219 217.210938 258.097656 217.226562 C 258.089844 217.226562 258.082031 217.226562 258.074219 217.226562 Z M 258.074219 217.226562"/><path fill="#71E9EE" d="M 259.027344 220.097656 L 251.800781 267.300781 L 236.773438 264.089844 L 229.890625 262.621094 L 223.996094 261.355469 L 217.105469 259.882812 L 211.945312 258.78125 L 221.453125 213.394531 L 232.976562 215.449219 L 239.875 216.679688 L 246.480469 217.859375 L 253.386719 219.089844 Z M 259.027344 220.097656"/><path fill="#45B2BF" d="M 251.804688 267.300781 L 262.289062 264.292969 L 265.089844 217.347656 L 259.027344 220.097656 Z M 251.804688 267.300781"/><path fill="#45B2BF" d="M 265.089844 217.347656 L 229.359375 210.601562 L 221.453125 213.394531 L 259.027344 220.097656 Z M 265.089844 217.347656"/><path d="M 221.453125 213.394531 L 225.347656 214.089844 L 229.871094 212.492188 L 262.292969 218.617188 L 265.09375 217.347656 L 229.359375 210.597656 Z M 221.453125 213.394531" fill-opacity=".098"/><path d="M 251.804688 267.484375 C 251.792969 267.484375 251.777344 267.480469 251.765625 267.480469 L 211.910156 258.960938 C 211.8125 258.9375 211.75 258.84375 211.769531 258.746094 L 221.273438 213.355469 C 221.296875 213.261719 221.390625 213.199219 221.484375 213.214844 L 259.058594 219.917969 C 259.15625 219.9375 259.222656 220.027344 259.207031 220.125 L 251.984375 267.328125 C 251.976562 267.378906 251.949219 267.421875 251.90625 267.449219 C 251.878906 267.472656 251.839844 267.484375 251.804688 267.484375 Z M 212.164062 258.640625 L 251.652344 267.082031 L 258.820312 220.246094 L 221.59375 213.605469 Z M 212.164062 258.640625"/><path d="M 251.804688 267.484375 C 251.761719 267.484375 251.71875 267.46875 251.683594 267.4375 C 251.636719 267.398438 251.617188 267.335938 251.625 267.273438 L 258.847656 220.070312 C 258.855469 220.011719 258.894531 219.957031 258.949219 219.933594 L 265.015625 217.179688 C 265.074219 217.15625 265.140625 217.160156 265.195312 217.195312 C 265.246094 217.234375 265.277344 217.292969 265.273438 217.359375 L 262.472656 264.304688 C 262.46875 264.382812 262.414062 264.449219 262.339844 264.46875 L 251.855469 267.476562 C 251.839844 267.480469 251.820312 267.484375 251.804688 267.484375 Z M 259.191406 220.222656 L 252.027344 267.046875 L 262.117188 264.15625 L 264.890625 217.636719 Z M 259.191406 220.222656"/><path d="M 259.027344 220.28125 C 259.015625 220.28125 259.003906 220.277344 258.996094 220.277344 L 221.421875 213.574219 C 221.339844 213.558594 221.277344 213.492188 221.273438 213.410156 C 221.265625 213.328125 221.3125 213.25 221.390625 213.222656 L 229.300781 210.429688 C 229.328125 210.417969 229.363281 210.414062 229.394531 210.421875 L 265.125 217.167969 C 265.203125 217.183594 265.261719 217.246094 265.269531 217.324219 C 265.28125 217.402344 265.238281 217.480469 265.164062 217.511719 L 259.101562 220.265625 C 259.078125 220.273438 259.050781 220.28125 259.027344 220.28125 Z M 222.164062 213.335938 L 259.003906 219.910156 L 264.492188 217.417969 L 229.375 210.789062 Z M 222.164062 213.335938"/><path d="M 228.824219 218.917969 C 228.757812 219.648438 229.292969 220.292969 230.023438 220.359375 C 230.757812 220.425781 231.398438 219.886719 231.464844 219.15625 C 231.53125 218.425781 230.996094 217.785156 230.261719 217.71875 C 229.535156 217.652344 228.890625 218.1875 228.824219 218.917969 Z M 228.824219 218.917969"/><path d="M 250.058594 223.386719 C 250.058594 223.5625 250.023438 223.730469 249.957031 223.894531 C 249.890625 224.054688 249.792969 224.199219 249.667969 224.324219 C 249.546875 224.449219 249.402344 224.542969 249.238281 224.609375 C 249.074219 224.679688 248.90625 224.710938 248.730469 224.710938 C 248.554688 224.710938 248.386719 224.679688 248.222656 224.609375 C 248.058594 224.542969 247.917969 224.449219 247.792969 224.324219 C 247.667969 224.199219 247.570312 224.054688 247.503906 223.894531 C 247.4375 223.730469 247.402344 223.5625 247.402344 223.386719 C 247.402344 223.210938 247.4375 223.039062 247.503906 222.878906 C 247.570312 222.714844 247.667969 222.570312 247.792969 222.445312 C 247.914062 222.324219 248.058594 222.226562 248.222656 222.160156 C 248.386719 222.09375 248.554688 222.058594 248.730469 222.058594 C 248.90625 222.058594 249.074219 222.09375 249.238281 222.160156 C 249.402344 222.226562 249.546875 222.324219 249.667969 222.445312 C 249.792969 222.570312 249.890625 222.714844 249.957031 222.878906 C 250.023438 223.039062 250.058594 223.210938 250.058594 223.386719 Z M 250.058594 223.386719"/><path d="M 248.75 223.359375 C 248.738281 223.359375 248.730469 223.359375 248.722656 223.359375 C 248.621094 223.34375 248.554688 223.25 248.570312 223.148438 C 248.605469 222.921875 252.074219 200.308594 244.085938 198.734375 C 236.09375 197.164062 230.140625 218.84375 230.082031 219.0625 C 230.054688 219.160156 229.960938 219.21875 229.859375 219.191406 C 229.761719 219.167969 229.703125 219.066406 229.730469 218.96875 C 229.976562 218.0625 235.832031 196.738281 244.15625 198.378906 C 252.484375 200.019531 249.078125 222.261719 248.929688 223.207031 C 248.914062 223.296875 248.835938 223.359375 248.75 223.359375 Z M 248.75 223.359375"/><path fill="#FFF" d="M 253.386719 219.089844 C 248.636719 234.433594 243.074219 249.5 236.773438 264.089844 L 229.890625 262.621094 C 236.171875 248.109375 241.730469 233.121094 246.480469 217.859375 Z M 253.386719 219.089844" fill-opacity=".2"/><path fill="#FFF" d="M 239.875 216.679688 C 235.351562 231.886719 230.039062 246.839844 223.996094 261.355469 L 217.105469 259.882812 C 223.148438 245.449219 228.460938 230.578125 232.976562 215.449219 Z M 239.875 216.679688" fill-opacity=".2"/><path fill="#FFD8C8" d="M 248.140625 203.730469 L 244.859375 201.578125 C 244.859375 201.578125 247.023438 199.679688 245.878906 198.484375 C 244.726562 197.285156 241.121094 199.359375 240.929688 201.722656 C 240.757812 203.882812 247.46875 203.683594 248.140625 203.730469 Z M 248.140625 203.730469"/><path d="M 248.164062 203.925781 C 248.132812 203.925781 248.105469 203.917969 248.078125 203.902344 C 248.003906 203.902344 247.878906 203.898438 247.71875 203.898438 C 245.351562 203.871094 242.085938 203.710938 241.066406 202.589844 C 240.828125 202.332031 240.722656 202.035156 240.75 201.707031 C 240.875 200.136719 242.449219 198.667969 243.894531 198.152344 C 244.800781 197.828125 245.570312 197.90625 246.007812 198.355469 C 247.265625 199.667969 245.25 201.640625 245.164062 201.722656 C 245.089844 201.792969 244.976562 201.792969 244.90625 201.71875 C 244.835938 201.648438 244.835938 201.53125 244.910156 201.460938 C 244.929688 201.445312 246.753906 199.660156 245.742188 198.609375 C 245.410156 198.261719 244.78125 198.222656 244.019531 198.492188 C 242.679688 198.96875 241.226562 200.3125 241.109375 201.738281 C 241.09375 201.960938 241.164062 202.160156 241.332031 202.34375 C 242.367188 203.476562 246.398438 203.519531 247.722656 203.535156 C 248.3125 203.542969 248.359375 203.542969 248.375 203.714844 C 248.382812 203.808594 248.292969 203.902344 248.199219 203.921875 C 248.1875 203.921875 248.175781 203.925781 248.164062 203.925781 Z M 248.164062 203.925781"/><path fill="#FFD8C8" d="M 249.863281 205.03125 L 246.578125 202.878906 C 246.578125 202.878906 248.746094 200.980469 247.597656 199.785156 C 246.445312 198.589844 242.84375 200.660156 242.648438 203.023438 C 242.476562 205.183594 249.1875 204.984375 249.863281 205.03125 Z M 249.863281 205.03125"/><path d="M 249.886719 205.226562 C 249.855469 205.226562 249.828125 205.21875 249.800781 205.203125 C 249.726562 205.203125 249.601562 205.203125 249.441406 205.199219 C 247.074219 205.175781 243.808594 205.011719 242.785156 203.890625 C 242.550781 203.632812 242.445312 203.335938 242.46875 203.007812 C 242.597656 201.441406 244.167969 199.96875 245.617188 199.453125 C 246.523438 199.128906 247.292969 199.207031 247.726562 199.660156 C 248.988281 200.96875 246.96875 202.941406 246.882812 203.027344 C 246.8125 203.09375 246.699219 203.09375 246.628906 203.019531 C 246.558594 202.949219 246.558594 202.832031 246.632812 202.765625 C 246.648438 202.746094 248.476562 200.960938 247.464844 199.910156 C 247.132812 199.566406 246.503906 199.523438 245.738281 199.792969 C 244.402344 200.273438 242.949219 201.617188 242.832031 203.039062 C 242.816406 203.265625 242.886719 203.460938 243.054688 203.644531 C 244.089844 204.777344 248.121094 204.820312 249.445312 204.835938 C 250.03125 204.84375 250.082031 204.84375 250.097656 205.019531 C 250.105469 205.109375 250.011719 205.203125 249.921875 205.222656 C 249.910156 205.226562 249.898438 205.226562 249.886719 205.226562 Z M 249.886719 205.226562"/><path fill="#FFD8C8" d="M 251.933594 207.03125 C 252.246094 206.101562 248.652344 204.882812 248.652344 204.882812 C 248.652344 204.882812 250.816406 202.980469 249.671875 201.789062 C 248.519531 200.589844 243.316406 202.84375 243.882812 205.148438 C 244.824219 208.984375 251.722656 207.671875 251.933594 207.03125 Z M 251.933594 207.03125"/><path d="M 248.1875 208.078125 C 247.816406 208.078125 247.445312 208.058594 247.09375 208.011719 C 245.058594 207.742188 243.886719 206.761719 243.703125 205.167969 C 243.535156 203.738281 245.0625 202.484375 246.417969 201.84375 C 247.636719 201.273438 249.160156 200.992188 249.804688 201.664062 C 250.074219 201.945312 250.203125 202.285156 250.1875 202.671875 C 250.152344 203.535156 249.382812 204.417969 248.992188 204.808594 C 249.417969 204.96875 250.246094 205.292969 250.945312 205.679688 C 251.03125 205.726562 251.0625 205.835938 251.015625 205.925781 C 250.964844 206.011719 250.855469 206.042969 250.769531 205.996094 C 249.832031 205.476562 248.605469 205.058594 248.59375 205.054688 C 248.535156 205.035156 248.488281 204.980469 248.476562 204.917969 C 248.460938 204.855469 248.484375 204.789062 248.535156 204.746094 C 248.546875 204.734375 249.78125 203.636719 249.824219 202.65625 C 249.835938 202.367188 249.742188 202.125 249.539062 201.914062 C 249.105469 201.460938 247.855469 201.570312 246.574219 202.175781 C 245.226562 202.808594 243.929688 203.96875 244.0625 205.128906 C 244.214844 206.449219 245.128906 207.28125 246.769531 207.59375 C 249.003906 208.015625 251.589844 207.292969 251.765625 206.960938 C 251.804688 206.871094 251.910156 206.824219 252.003906 206.863281 C 252.097656 206.898438 252.140625 207.003906 252.105469 207.097656 C 251.910156 207.589844 250.003906 208.078125 248.1875 208.078125 Z M 248.1875 208.078125"/><path fill="#FF7E53" d="M 262.628906 305.078125 L 289.429688 305.078125 C 289.429688 305.078125 290.019531 304.730469 289.808594 303.839844 C 289.703125 303.347656 299.382812 214.832031 299.714844 212.132812 C 299.730469 212.085938 299.730469 212.058594 299.730469 212.058594 C 299.730469 212.058594 299.730469 212.089844 299.734375 212.148438 C 299.761719 212.46875 299.847656 213.640625 299.988281 215.464844 C 300.417969 221.058594 301.316406 232.761719 302.207031 244.722656 C 303.472656 261.59375 304.734375 290.941406 304.6875 292.421875 C 304.675781 292.96875 304.75 293.53125 304.890625 294.089844 C 305.480469 296.507812 307.097656 298.941406 306.328125 300.6875 C 306.289062 300.769531 306.257812 300.851562 306.226562 300.933594 C 305.433594 303.003906 306.15625 305.078125 306.15625 305.078125 L 331.410156 305.078125 L 329.066406 269.488281 L 320.992188 187.917969 L 320.585938 183.804688 L 280.421875 183.804688 C 280.421875 183.804688 280.359375 184.183594 280.246094 184.867188 C 280.125 185.554688 279.949219 186.554688 279.738281 187.804688 C 279.644531 188.347656 279.539062 189.011719 279.40625 189.785156 C 279.121094 191.519531 278.746094 193.808594 278.304688 196.511719 C 274.375 220.847656 265.203125 291.308594 264.613281 295.09375 C 264.210938 297.652344 264.828125 299.300781 265.417969 300.238281 C 265.84375 300.902344 266.246094 301.203125 266.246094 301.203125 C 266.246094 301.203125 261.589844 302.921875 262.628906 305.078125 Z M 262.628906 305.078125"/><path fill="#D04E41" d="M 278.304688 196.511719 C 282.480469 199.242188 287.132812 201.234375 291.980469 202.390625 C 295.0625 203.128906 298.222656 203.527344 301.394531 203.570312 C 306.953125 203.636719 313.253906 202.871094 317.367188 206.605469 C 320.332031 209.296875 321.171875 213.542969 321.8125 217.488281 C 324.203125 232.242188 325.980469 247.097656 327.132812 262 C 327.335938 264.585938 327.65625 267.433594 329.066406 269.488281 L 320.992188 187.917969 C 313.859375 185.304688 306.042969 184.734375 298.417969 184.992188 C 294.066406 185.144531 289.671875 185.554688 285.527344 186.890625 C 283.378906 187.585938 281.296875 188.539062 279.40625 189.785156 C 279.121094 191.519531 278.746094 193.808594 278.304688 196.511719 Z M 278.304688 196.511719"/><path fill="#D04E41" d="M 265.421875 300.234375 C 265.84375 300.902344 266.25 301.203125 266.25 301.203125 C 266.257812 301.207031 266.265625 301.21875 266.273438 301.222656 C 267.082031 301.796875 268.148438 301.046875 267.984375 300.074219 C 267.679688 298.308594 267.765625 296.480469 268.242188 294.761719 C 268.894531 292.429688 270.226562 278.40625 271.429688 276.304688 C 274.316406 271.269531 276.175781 202.015625 281.007812 187.589844 L 281.347656 185.1875 C 280.988281 185.050781 280.617188 184.941406 280.242188 184.871094 C 280.125 185.554688 279.953125 186.554688 279.738281 187.804688 C 277.535156 200.65625 265.300781 290.699219 264.613281 295.089844 C 264.207031 297.648438 264.832031 299.304688 265.421875 300.234375 Z M 265.421875 300.234375"/><path d="M 331.40625 305.257812 L 306.15625 305.257812 C 306.078125 305.257812 306.011719 305.210938 305.984375 305.136719 C 305.953125 305.050781 305.253906 302.980469 306.058594 300.867188 C 306.089844 300.78125 306.125 300.699219 306.160156 300.613281 C 306.652344 299.503906 306.097656 298.046875 305.507812 296.503906 C 305.214844 295.730469 304.914062 294.933594 304.71875 294.132812 C 304.5625 293.511719 304.496094 292.949219 304.511719 292.414062 C 304.585938 289.796875 300.488281 226.515625 299.683594 214.148438 C 298.199219 227.679688 289.96875 302.738281 289.996094 303.824219 C 290.222656 304.804688 289.554688 305.214844 289.527344 305.234375 C 289.5 305.25 289.46875 305.257812 289.433594 305.257812 L 262.632812 305.257812 C 262.5625 305.257812 262.496094 305.21875 262.46875 305.15625 C 262.257812 304.71875 262.242188 304.265625 262.425781 303.8125 C 262.972656 302.464844 265.128906 301.464844 265.910156 301.140625 C 265.316406 300.558594 263.859375 298.714844 264.4375 295.058594 C 265.117188 290.722656 280.089844 184.851562 280.242188 183.78125 C 280.253906 183.691406 280.332031 183.625 280.421875 183.625 L 320.589844 183.625 C 320.683594 183.625 320.761719 183.695312 320.769531 183.789062 L 331.589844 305.0625 C 331.59375 305.113281 331.574219 305.160156 331.542969 305.199219 C 331.507812 305.238281 331.457031 305.257812 331.40625 305.257812 Z M 306.289062 304.894531 L 331.207031 304.894531 L 320.421875 183.988281 L 280.578125 183.988281 C 279.921875 188.65625 265.464844 290.851562 264.796875 295.117188 C 264.128906 299.335938 266.335938 301.039062 266.359375 301.054688 C 266.414062 301.09375 266.441406 301.160156 266.429688 301.226562 C 266.421875 301.292969 266.375 301.347656 266.3125 301.371094 C 266.285156 301.382812 263.359375 302.480469 262.765625 303.949219 C 262.632812 304.273438 262.628906 304.582031 262.75 304.894531 L 289.375 304.894531 C 289.484375 304.808594 289.78125 304.503906 289.636719 303.878906 C 289.527344 303.375 297.875 227.289062 299.550781 212.039062 C 299.558594 211.945312 299.652344 211.863281 299.734375 211.878906 C 299.828125 211.878906 299.90625 211.953125 299.914062 212.046875 C 300.117188 215.210938 304.957031 289.519531 304.875 292.425781 C 304.859375 292.925781 304.925781 293.457031 305.074219 294.046875 C 305.261719 294.824219 305.558594 295.613281 305.847656 296.375 C 306.464844 297.988281 307.042969 299.515625 306.496094 300.757812 C 306.457031 300.839844 306.429688 300.914062 306.398438 300.996094 C 305.746094 302.703125 306.15625 304.429688 306.289062 304.894531 Z M 306.289062 304.894531"/><path d="M 306.328125 300.6875 C 306.292969 300.769531 306.261719 300.847656 306.230469 300.929688 C 306.230469 300.929688 312.117188 301.660156 310.40625 299.910156 C 308.722656 298.1875 305.011719 294.210938 304.894531 294.089844 C 305.480469 296.507812 307.097656 298.9375 306.328125 300.6875 Z M 306.328125 300.6875"/><path fill="#4776F8" d="M 253.003906 322.300781 L 287.511719 322.300781 C 288.484375 322.300781 289.230469 321.429688 289.078125 320.464844 L 286.675781 305.121094 L 263.714844 305.078125 L 263.714844 308.921875 L 255.101562 312.648438 C 253.261719 313.554688 251.761719 314.941406 250.722656 316.617188 C 250.492188 316.980469 250.289062 317.359375 250.113281 317.75 C 249.113281 319.867188 250.660156 322.300781 253.003906 322.300781 Z M 253.003906 322.300781"/><path fill="#335CFF" d="M 249.855469 319.675781 C 250.121094 321.113281 251.363281 322.300781 253.003906 322.300781 L 287.511719 322.300781 C 288.484375 322.300781 289.230469 321.429688 289.078125 320.464844 L 286.675781 305.121094 L 285.074219 305.117188 L 287.101562 318.058594 C 287.25 319.023438 286.503906 319.894531 285.53125 319.894531 L 251.023438 319.894531 C 250.605469 319.894531 250.214844 319.816406 249.855469 319.675781 Z M 249.855469 319.675781"/><path d="M 287.507812 322.480469 L 253.003906 322.480469 C 251.839844 322.480469 250.777344 321.894531 250.152344 320.914062 C 249.527344 319.933594 249.453125 318.722656 249.945312 317.671875 C 250.121094 317.289062 250.328125 316.898438 250.566406 316.519531 C 251.640625 314.789062 253.183594 313.390625 255.019531 312.484375 L 263.53125 308.800781 L 263.53125 305.078125 C 263.53125 305.03125 263.550781 304.984375 263.582031 304.949219 C 263.617188 304.914062 263.664062 304.894531 263.710938 304.894531 L 286.675781 304.9375 C 286.765625 304.9375 286.839844 305.003906 286.855469 305.09375 L 289.257812 320.4375 C 289.339844 320.949219 289.191406 321.46875 288.851562 321.863281 C 288.515625 322.257812 288.027344 322.480469 287.507812 322.480469 Z M 263.894531 305.261719 L 263.894531 308.921875 C 263.894531 308.996094 263.851562 309.058594 263.785156 309.089844 L 255.171875 312.816406 C 253.402344 313.6875 251.917969 315.039062 250.878906 316.714844 C 250.648438 317.078125 250.445312 317.453125 250.277344 317.824219 C 249.835938 318.765625 249.902344 319.84375 250.460938 320.71875 C 251.015625 321.59375 251.964844 322.117188 253.003906 322.117188 L 287.507812 322.117188 C 287.921875 322.117188 288.308594 321.9375 288.578125 321.625 C 288.84375 321.3125 288.960938 320.902344 288.898438 320.492188 L 286.519531 305.300781 Z M 263.894531 305.261719"/><path d="M 287.117188 307.9375 L 263.714844 307.457031 L 263.714844 305.078125 L 286.675781 305.117188 Z M 287.117188 307.9375"/><path fill="#FFF" d="M 266.410156 313.207031 L 257.492188 318.859375 C 256.675781 319.378906 255.667969 319.507812 254.742188 319.214844 L 250.113281 317.746094 C 250.289062 317.355469 250.496094 316.980469 250.722656 316.617188 C 251.761719 314.941406 253.261719 313.554688 255.101562 312.648438 L 263.714844 308.921875 L 266.441406 310.746094 C 267.324219 311.335938 267.304688 312.636719 266.410156 313.207031 Z M 266.410156 313.207031"/><path d="M 255.738281 319.550781 C 255.386719 319.550781 255.03125 319.496094 254.6875 319.390625 L 250.058594 317.921875 C 250.007812 317.90625 249.96875 317.867188 249.949219 317.820312 C 249.925781 317.773438 249.925781 317.71875 249.949219 317.671875 C 250.125 317.28125 250.335938 316.894531 250.570312 316.519531 C 251.644531 314.785156 253.183594 313.390625 255.023438 312.484375 L 263.640625 308.753906 C 263.699219 308.730469 263.765625 308.734375 263.816406 308.769531 L 266.542969 310.597656 C 267.007812 310.90625 267.28125 311.425781 267.273438 311.988281 C 267.265625 312.546875 266.980469 313.058594 266.507812 313.359375 L 257.589844 319.011719 C 257.03125 319.367188 256.386719 319.550781 255.738281 319.550781 Z M 250.367188 317.636719 L 254.796875 319.042969 C 255.675781 319.320312 256.621094 319.195312 257.394531 318.707031 L 266.3125 313.054688 C 266.679688 312.820312 266.90625 312.417969 266.910156 311.980469 C 266.914062 311.546875 266.703125 311.140625 266.339844 310.898438 L 263.695312 309.125 L 255.175781 312.8125 C 253.40625 313.6875 251.917969 315.035156 250.878906 316.710938 C 250.6875 317.015625 250.515625 317.324219 250.367188 317.636719 Z M 266.410156 313.207031 L 266.414062 313.207031 Z M 266.410156 313.207031"/><path d="M 263.246094 315.394531 C 263.1875 315.394531 263.132812 315.363281 263.097656 315.3125 C 261.539062 312.992188 258.871094 311.152344 258.84375 311.132812 C 258.761719 311.074219 258.742188 310.960938 258.796875 310.878906 C 258.855469 310.796875 258.96875 310.777344 259.050781 310.832031 C 259.078125 310.851562 261.800781 312.734375 263.398438 315.109375 C 263.453125 315.191406 263.433594 315.304688 263.347656 315.363281 C 263.316406 315.382812 263.28125 315.394531 263.246094 315.394531 Z M 263.246094 315.394531"/><path d="M 259.6875 317.652344 C 259.617188 317.652344 259.550781 317.609375 259.519531 317.542969 C 258.519531 315.292969 256.226562 313.601562 255.363281 312.96875 C 254.96875 312.675781 254.917969 312.640625 254.941406 312.507812 C 254.957031 312.410156 255.042969 312.339844 255.152344 312.359375 C 255.207031 312.367188 255.25 312.402344 255.277344 312.445312 C 255.320312 312.484375 255.453125 312.582031 255.578125 312.675781 C 256.460938 313.328125 258.8125 315.058594 259.851562 317.394531 C 259.894531 317.488281 259.851562 317.59375 259.761719 317.636719 C 259.734375 317.644531 259.710938 317.652344 259.6875 317.652344 Z M 259.6875 317.652344"/><path d="M 288.632812 317.652344 L 259.6875 317.652344 C 259.585938 317.652344 259.503906 317.570312 259.503906 317.46875 C 259.503906 317.367188 259.585938 317.289062 259.6875 317.289062 L 288.632812 317.289062 C 288.730469 317.289062 288.8125 317.367188 288.8125 317.46875 C 288.8125 317.570312 288.730469 317.652344 288.632812 317.652344 Z M 288.632812 317.652344"/><path d="M 287.117188 308.117188 C 287.117188 308.117188 287.113281 308.117188 287.113281 308.117188 L 263.710938 307.636719 C 263.613281 307.632812 263.53125 307.554688 263.53125 307.453125 L 263.53125 305.078125 C 263.53125 305.027344 263.550781 304.980469 263.585938 304.949219 C 263.621094 304.914062 263.667969 304.894531 263.714844 304.894531 L 286.675781 304.9375 C 286.765625 304.9375 286.84375 305.003906 286.855469 305.089844 L 287.296875 307.910156 C 287.304688 307.960938 287.289062 308.015625 287.253906 308.054688 C 287.21875 308.097656 287.167969 308.117188 287.117188 308.117188 Z M 263.898438 307.277344 L 286.902344 307.75 L 286.519531 305.300781 L 263.898438 305.257812 Z M 263.898438 307.277344"/><path fill="#FFF" d="M 275.726562 307.703125 L 275.726562 309.6875 L 287.453125 309.6875 L 287.117188 307.9375 Z M 275.726562 307.703125"/><path d="M 287.453125 309.867188 L 275.726562 309.867188 C 275.628906 309.867188 275.546875 309.785156 275.546875 309.6875 L 275.546875 307.703125 C 275.546875 307.652344 275.566406 307.605469 275.601562 307.574219 C 275.636719 307.539062 275.695312 307.523438 275.730469 307.519531 L 287.121094 307.753906 C 287.207031 307.757812 287.28125 307.816406 287.296875 307.902344 L 287.632812 309.652344 C 287.644531 309.707031 287.628906 309.761719 287.59375 309.800781 C 287.558594 309.84375 287.507812 309.867188 287.453125 309.867188 Z M 275.910156 309.503906 L 287.234375 309.503906 L 286.964844 308.117188 L 275.910156 307.886719 Z M 275.910156 309.503906"/><path fill="#4776F8" d="M 340.636719 322.300781 L 306.132812 322.300781 C 305.160156 322.300781 304.414062 321.429688 304.5625 320.464844 L 306.964844 305.121094 L 329.929688 305.078125 L 329.929688 308.921875 L 338.542969 312.648438 C 340.382812 313.554688 341.882812 314.941406 342.921875 316.617188 C 343.148438 316.980469 343.355469 317.359375 343.53125 317.75 C 344.527344 319.867188 342.980469 322.300781 340.636719 322.300781 Z M 340.636719 322.300781"/><path fill="#335CFF" d="M 343.785156 319.675781 C 343.519531 321.113281 342.277344 322.300781 340.636719 322.300781 L 306.132812 322.300781 C 305.160156 322.300781 304.414062 321.429688 304.5625 320.464844 L 306.964844 305.121094 L 308.570312 305.117188 L 306.542969 318.058594 C 306.394531 319.023438 307.140625 319.894531 308.113281 319.894531 L 342.617188 319.894531 C 343.035156 319.894531 343.429688 319.816406 343.785156 319.675781 Z M 343.785156 319.675781"/><path d="M 306.527344 307.9375 L 329.929688 307.457031 L 329.929688 305.078125 L 306.964844 305.117188 Z M 306.527344 307.9375"/><path d="M 340.636719 322.480469 L 306.132812 322.480469 C 305.617188 322.480469 305.128906 322.257812 304.789062 321.863281 C 304.453125 321.46875 304.304688 320.949219 304.382812 320.4375 L 306.785156 305.09375 C 306.800781 305.003906 306.875 304.9375 306.964844 304.9375 L 329.929688 304.894531 C 329.976562 304.894531 330.023438 304.914062 330.058594 304.949219 C 330.09375 304.984375 330.113281 305.03125 330.113281 305.078125 L 330.113281 308.800781 L 338.613281 312.480469 C 340.460938 313.390625 342 314.789062 343.074219 316.523438 C 343.3125 316.898438 343.519531 317.285156 343.695312 317.675781 C 344.191406 318.722656 344.113281 319.933594 343.492188 320.914062 C 342.867188 321.894531 341.800781 322.480469 340.636719 322.480469 Z M 307.121094 305.300781 L 304.742188 320.496094 C 304.679688 320.902344 304.796875 321.3125 305.066406 321.628906 C 305.332031 321.9375 305.722656 322.117188 306.132812 322.117188 L 340.636719 322.117188 C 341.675781 322.117188 342.628906 321.59375 343.183594 320.71875 C 343.738281 319.84375 343.808594 318.761719 343.367188 317.828125 C 343.195312 317.449219 342.996094 317.078125 342.765625 316.714844 C 341.726562 315.035156 340.238281 313.6875 338.460938 312.8125 L 329.855469 309.089844 C 329.792969 309.058594 329.746094 308.996094 329.746094 308.921875 L 329.746094 305.261719 Z M 307.121094 305.300781"/><path fill="#FFF" d="M 327.234375 313.207031 L 336.148438 318.859375 C 336.96875 319.378906 337.976562 319.507812 338.898438 319.214844 L 343.527344 317.746094 C 343.351562 317.355469 343.148438 316.980469 342.917969 316.617188 C 341.878906 314.941406 340.378906 313.554688 338.539062 312.648438 L 329.929688 308.921875 L 327.203125 310.746094 C 326.320312 311.335938 326.335938 312.636719 327.234375 313.207031 Z M 327.234375 313.207031"/><path d="M 337.90625 319.550781 C 337.257812 319.550781 336.613281 319.367188 336.050781 319.011719 L 327.136719 313.359375 C 326.660156 313.058594 326.375 312.546875 326.367188 311.988281 C 326.363281 311.425781 326.636719 310.90625 327.101562 310.597656 L 329.824219 308.769531 C 329.878906 308.734375 329.941406 308.730469 330 308.753906 L 338.613281 312.480469 C 340.457031 313.390625 341.996094 314.785156 343.074219 316.519531 C 343.308594 316.894531 343.519531 317.285156 343.695312 317.671875 C 343.714844 317.71875 343.714844 317.773438 343.695312 317.820312 C 343.671875 317.867188 343.632812 317.90625 343.582031 317.921875 L 338.953125 319.390625 C 338.609375 319.496094 338.257812 319.550781 337.90625 319.550781 Z M 327.332031 313.054688 L 336.246094 318.707031 C 337.023438 319.195312 337.96875 319.320312 338.84375 319.042969 L 343.277344 317.636719 C 343.125 317.324219 342.953125 317.015625 342.765625 316.710938 C 341.722656 315.035156 340.234375 313.6875 338.460938 312.808594 L 329.945312 309.125 L 327.304688 310.898438 C 326.941406 311.140625 326.726562 311.546875 326.730469 311.984375 C 326.738281 312.417969 326.960938 312.820312 327.332031 313.054688 Z M 327.332031 313.054688"/><path d="M 330.394531 315.394531 C 330.359375 315.394531 330.324219 315.382812 330.292969 315.363281 C 330.210938 315.304688 330.1875 315.191406 330.246094 315.109375 C 331.84375 312.734375 334.5625 310.851562 334.589844 310.832031 C 334.671875 310.777344 334.789062 310.796875 334.84375 310.878906 C 334.902344 310.960938 334.878906 311.074219 334.796875 311.132812 C 334.769531 311.152344 332.105469 312.996094 330.546875 315.3125 C 330.511719 315.363281 330.453125 315.394531 330.394531 315.394531 Z M 330.394531 315.394531"/><path d="M 333.957031 317.652344 C 333.933594 317.652344 333.90625 317.644531 333.882812 317.636719 C 333.792969 317.59375 333.75 317.488281 333.789062 317.394531 C 334.832031 315.058594 337.179688 313.324219 338.066406 312.675781 C 338.191406 312.582031 338.324219 312.484375 338.367188 312.445312 C 338.390625 312.402344 338.4375 312.367188 338.492188 312.359375 C 338.597656 312.339844 338.6875 312.410156 338.703125 312.507812 C 338.722656 312.640625 338.671875 312.675781 338.28125 312.964844 C 337.417969 313.601562 335.125 315.292969 334.125 317.542969 C 334.09375 317.609375 334.027344 317.652344 333.957031 317.652344 Z M 333.957031 317.652344"/><path d="M 333.957031 317.652344 L 305.011719 317.652344 C 304.910156 317.652344 304.828125 317.570312 304.828125 317.46875 C 304.828125 317.367188 304.910156 317.289062 305.011719 317.289062 L 333.957031 317.289062 C 334.058594 317.289062 334.140625 317.367188 334.140625 317.46875 C 334.140625 317.570312 334.058594 317.652344 333.957031 317.652344 Z M 333.957031 317.652344"/><path d="M 306.527344 308.117188 C 306.472656 308.117188 306.421875 308.097656 306.386719 308.054688 C 306.351562 308.015625 306.335938 307.960938 306.347656 307.910156 L 306.785156 305.089844 C 306.800781 305.003906 306.875 304.9375 306.964844 304.9375 L 329.925781 304.894531 C 329.976562 304.894531 330.023438 304.914062 330.054688 304.949219 C 330.089844 304.980469 330.109375 305.027344 330.109375 305.078125 L 330.109375 307.453125 C 330.109375 307.554688 330.03125 307.632812 329.929688 307.636719 L 306.53125 308.117188 C 306.527344 308.117188 306.527344 308.117188 306.527344 308.117188 Z M 307.121094 305.300781 L 306.738281 307.75 L 329.746094 307.277344 L 329.746094 305.257812 Z M 307.121094 305.300781"/><path fill="#FFF" d="M 317.914062 307.703125 L 317.914062 309.6875 L 306.1875 309.6875 L 306.527344 307.9375 Z M 317.914062 307.703125"/><path d="M 317.914062 309.867188 L 306.1875 309.867188 C 306.136719 309.867188 306.082031 309.84375 306.050781 309.800781 C 306.015625 309.761719 306 309.707031 306.011719 309.652344 L 306.347656 307.902344 C 306.363281 307.816406 306.4375 307.757812 306.523438 307.753906 L 317.910156 307.519531 C 317.945312 307.523438 318.007812 307.539062 318.042969 307.574219 C 318.078125 307.605469 318.097656 307.652344 318.097656 307.703125 L 318.097656 309.6875 C 318.097656 309.785156 318.015625 309.867188 317.914062 309.867188 Z M 306.410156 309.503906 L 317.734375 309.503906 L 317.734375 307.886719 L 306.675781 308.117188 Z M 306.410156 309.503906"/><path fill="#FFF" d="M 283.46875 281.828125 C 283.464844 281.828125 283.460938 281.828125 283.457031 281.828125 C 282.855469 281.824219 282.371094 281.332031 282.378906 280.726562 C 282.425781 275.914062 282.46875 273.472656 282.511719 272.808594 C 282.554688 272.207031 283.089844 271.75 283.675781 271.796875 C 284.277344 271.835938 284.730469 272.359375 284.691406 272.957031 C 284.628906 273.851562 284.578125 279.042969 284.5625 280.75 C 284.554688 281.347656 284.066406 281.828125 283.46875 281.828125 Z M 283.46875 281.828125"/><path fill="#FFF" d="M 284.039062 269.140625 C 284 269.140625 283.957031 269.136719 283.914062 269.132812 C 283.316406 269.066406 282.886719 268.527344 282.953125 267.929688 C 283.511719 262.921875 284.414062 257.914062 285.640625 253.035156 C 285.785156 252.453125 286.375 252.097656 286.964844 252.242188 C 287.546875 252.390625 287.902344 252.980469 287.757812 253.566406 C 286.558594 258.347656 285.671875 263.261719 285.121094 268.171875 C 285.058594 268.726562 284.585938 269.140625 284.039062 269.140625 Z M 284.039062 269.140625"/><path fill="#A068EF" d="M 249.339844 193.421875 L 260.792969 204.144531 L 263.796875 200.699219 L 281.105469 180.839844 L 285.375 170.304688 L 287.390625 165.3125 L 280.855469 140.523438 C 280.855469 140.523438 276.402344 142.871094 272.292969 149.734375 C 269.515625 154.359375 264.484375 173.9375 264.484375 173.9375 Z M 249.339844 193.421875"/><path fill="#542970" d="M 262.785156 199.546875 C 262.921875 200.117188 263.304688 200.53125 263.796875 200.835938 L 281.105469 180.976562 L 285.375 170.441406 C 284.96875 166.261719 284.183594 161.984375 281.835938 158.507812 C 280.160156 156.039062 277.71875 154.078125 274.941406 152.980469 C 273.640625 153.777344 272.726562 155.136719 272.101562 156.542969 C 270.765625 159.546875 270.496094 162.914062 270.578125 166.199219 C 270.652344 169.480469 271.066406 172.757812 271.015625 176.046875 C 270.894531 183.394531 268.382812 190.6875 263.949219 196.550781 C 263.277344 197.4375 262.523438 198.464844 262.785156 199.546875 Z M 262.785156 199.546875"/><path d="M 260.792969 204.460938 C 260.746094 204.460938 260.703125 204.441406 260.667969 204.410156 L 249.21875 193.691406 C 249.148438 193.628906 249.140625 193.523438 249.199219 193.449219 L 264.316406 173.992188 C 264.628906 172.777344 269.410156 154.320312 272.132812 149.777344 C 276.226562 142.949219 280.726562 140.519531 280.773438 140.496094 C 280.820312 140.46875 280.878906 140.46875 280.929688 140.492188 C 280.980469 140.511719 281.019531 140.558594 281.03125 140.613281 L 287.566406 165.402344 C 287.578125 165.4375 287.574219 165.480469 287.5625 165.515625 L 281.515625 180.734375 C 281.507812 180.753906 281.496094 180.773438 281.484375 180.789062 L 260.929688 204.398438 C 260.898438 204.433594 260.851562 204.457031 260.800781 204.460938 C 260.800781 204.460938 260.796875 204.460938 260.792969 204.460938 Z M 249.585938 193.539062 L 260.78125 204.015625 L 281.191406 180.570312 L 287.199219 165.4375 L 280.742188 140.933594 C 279.832031 141.484375 275.992188 144.046875 272.445312 149.960938 C 269.714844 154.515625 264.710938 173.921875 264.660156 174.117188 C 264.652344 174.140625 264.644531 174.164062 264.628906 174.183594 Z M 249.585938 193.539062"/><path fill="#A068EF" d="M 323.148438 142.652344 C 316.824219 135.148438 286.0625 134.84375 279.335938 141.882812 C 269.855469 151.808594 276.375 196.65625 276.90625 196.355469 C 276.558594 202.269531 323.355469 202.3125 323.703125 196.398438 C 323.703125 196.398438 332.960938 154.296875 323.148438 142.652344 Z M 323.148438 142.652344"/><path d="M 306.167969 173.699219 C 306.25 174.074219 306.617188 174.300781 306.949219 174.476562 C 310.683594 176.386719 315.007812 177.113281 319.164062 176.519531 C 321.253906 176.222656 323.480469 175.464844 324.5625 173.65625 C 325.351562 172.34375 325.382812 170.679688 324.941406 169.207031 C 324.5 167.742188 323.625 166.445312 322.6875 165.234375 C 320.152344 161.972656 317.027344 159.171875 313.503906 157.003906 C 313.125 158.195312 313.046875 159.484375 313.269531 160.714844 C 313.546875 162.238281 314.277344 163.640625 314.730469 165.121094 C 315.1875 166.597656 315.339844 168.296875 314.523438 169.617188 C 313.828125 170.742188 312.550781 171.386719 311.269531 171.722656 C 309.988281 172.066406 308.652344 172.160156 307.375 172.496094 C 306.765625 172.660156 306.039062 173.089844 306.167969 173.699219 Z M 306.167969 173.699219"/><path d="M 300.199219 200.992188 C 299.945312 200.992188 299.6875 200.992188 299.433594 200.992188 C 289 200.9375 280.503906 199.746094 277.789062 197.960938 C 277.074219 197.492188 276.714844 196.96875 276.722656 196.40625 C 276.289062 195.429688 275.175781 187.683594 274.558594 179.390625 C 273.929688 170.929688 273.558594 159.046875 275.390625 150.472656 C 275.414062 150.375 275.503906 150.3125 275.605469 150.332031 C 275.707031 150.355469 275.769531 150.449219 275.746094 150.550781 C 272.394531 166.242188 276.34375 194.746094 277.015625 196.210938 C 277.0625 196.246094 277.089844 196.304688 277.089844 196.367188 C 277.0625 196.8125 277.367188 197.246094 277.988281 197.660156 C 283.757812 201.453125 314.617188 201.644531 322.019531 197.9375 C 322.984375 197.453125 323.488281 196.933594 323.519531 196.390625 C 323.617188 195.941406 332.648438 154.214844 323.007812 142.769531 C 317.117188 135.777344 288.28125 134.847656 280.152344 141.386719 C 280.070312 141.449219 279.957031 141.4375 279.894531 141.359375 C 279.832031 141.28125 279.84375 141.167969 279.921875 141.105469 C 283.613281 138.136719 292.382812 136.382812 302.269531 136.648438 C 310.210938 136.859375 319.902344 138.519531 323.285156 142.535156 C 333.042969 154.117188 324.257812 194.714844 323.878906 196.4375 C 323.84375 197.09375 323.269531 197.714844 322.179688 198.261719 C 318.84375 199.933594 310.269531 200.992188 300.199219 200.992188 Z M 300.199219 200.992188"/><path d="M 299.734375 212.148438 C 299.761719 212.46875 299.847656 213.640625 299.988281 215.464844 L 300.246094 212.816406 C 300.132812 212.539062 299.957031 212.316406 299.734375 212.148438 Z M 299.734375 212.148438"/><path fill="#D04E41" d="M 289.039062 305.078125 L 289.429688 305.078125 C 289.429688 305.078125 290.019531 304.730469 289.808594 303.839844 C 289.703125 303.347656 299.382812 214.832031 299.714844 212.132812 C 298.804688 211.453125 297.21875 211.65625 296.351562 212.527344 C 295.269531 213.621094 295.023438 215.261719 294.828125 216.792969 C 292.953125 231.679688 293.546875 246.992188 291.675781 261.878906 C 290.351562 272.40625 286.585938 294.816406 289.039062 305.078125 Z M 289.039062 305.078125"/><path fill="#FFD8C8" d="M 263.296875 174.425781 C 263.953125 171.453125 276.007812 173.035156 276.007812 173.035156 C 276.007812 173.035156 273.238281 170.929688 274.117188 169.792969 C 276.761719 166.398438 290.78125 172.300781 291.140625 172.453125 C 291.148438 172.453125 291.148438 172.453125 291.148438 172.453125 L 293.421875 172.460938 L 293.421875 186.257812 C 292.539062 185.996094 291.890625 185.785156 291.550781 185.660156 C 291.550781 185.660156 284.066406 186.84375 280.160156 186.519531 C 276.246094 186.195312 275.953125 183.546875 275.953125 183.546875 C 273.503906 182.355469 274.859375 180.523438 274.859375 180.523438 C 272.707031 179.265625 274.355469 177.363281 274.355469 177.363281 C 274.355469 177.363281 262.648438 177.394531 263.296875 174.425781 Z M 263.296875 174.425781"/><path fill="#FE8D7C" d="M 274.355469 177.363281 C 274.355469 177.363281 272.707031 179.265625 274.859375 180.523438 C 274.859375 180.523438 273.503906 182.355469 275.953125 183.546875 C 275.953125 183.546875 276.246094 186.195312 280.160156 186.519531 C 284.066406 186.84375 291.550781 185.660156 291.550781 185.660156 C 278.21875 186.789062 276.09375 182.933594 276.09375 182.933594 C 274.523438 181.855469 276.125 181.265625 275.4375 180.121094 C 274.746094 178.984375 275.011719 177.839844 275.4375 177.050781 C 275.859375 176.269531 265.273438 177.574219 264.332031 174.617188 C 263.675781 172.550781 275.570312 174.277344 276.746094 173.492188 C 277.921875 172.710938 274.324219 170.746094 275.703125 170.097656 C 277.074219 169.441406 291.140625 172.453125 291.140625 172.453125 C 290.78125 172.300781 276.761719 166.398438 274.117188 169.792969 C 273.238281 170.929688 276.007812 173.035156 276.007812 173.035156 C 276.007812 173.035156 263.953125 171.453125 263.296875 174.425781 C 262.648438 177.394531 274.355469 177.363281 274.355469 177.363281 Z M 274.355469 177.363281"/><path d="M 281.691406 186.753906 C 281.136719 186.753906 280.613281 186.738281 280.144531 186.699219 C 276.570312 186.402344 275.898438 184.175781 275.789062 183.671875 C 274.992188 183.261719 274.507812 182.742188 274.355469 182.117188 C 274.191406 181.449219 274.453125 180.859375 274.609375 180.582031 C 274.027344 180.203125 273.6875 179.734375 273.59375 179.1875 C 273.484375 178.511719 273.78125 177.894531 274.003906 177.542969 C 272.269531 177.523438 264.910156 177.335938 263.382812 175.449219 C 263.125 175.125 263.035156 174.769531 263.117188 174.386719 C 263.722656 171.652344 272.90625 172.496094 275.414062 172.78125 C 274.824219 172.257812 273.882812 171.304688 273.773438 170.472656 C 273.734375 170.171875 273.800781 169.90625 273.972656 169.679688 C 276.667969 166.226562 290.222656 171.867188 291.175781 172.269531 L 293.425781 172.277344 C 293.523438 172.277344 293.605469 172.359375 293.605469 172.460938 L 293.605469 186.257812 C 293.605469 186.316406 293.578125 186.371094 293.53125 186.402344 C 293.488281 186.4375 293.425781 186.449219 293.371094 186.433594 C 292.589844 186.203125 291.921875 185.988281 291.53125 185.84375 C 290.964844 185.933594 285.535156 186.753906 281.691406 186.753906 Z M 274.355469 177.179688 C 274.429688 177.179688 274.492188 177.222656 274.523438 177.285156 C 274.550781 177.351562 274.542969 177.425781 274.496094 177.480469 C 274.488281 177.488281 273.8125 178.285156 273.953125 179.128906 C 274.035156 179.609375 274.371094 180.027344 274.953125 180.367188 C 274.996094 180.394531 275.027344 180.4375 275.039062 180.488281 C 275.046875 180.539062 275.039062 180.589844 275.007812 180.632812 C 275 180.640625 274.527344 181.296875 274.707031 182.03125 C 274.839844 182.566406 275.289062 183.023438 276.03125 183.386719 C 276.089844 183.410156 276.125 183.464844 276.132812 183.527344 C 276.144531 183.628906 276.46875 186.03125 280.175781 186.335938 C 284.015625 186.660156 291.449219 185.492188 291.523438 185.480469 C 291.554688 185.472656 291.585938 185.476562 291.613281 185.488281 C 291.953125 185.617188 292.539062 185.804688 293.242188 186.015625 L 293.242188 172.640625 L 291.144531 172.632812 C 291.121094 172.632812 291.089844 172.628906 291.070312 172.621094 C 290.925781 172.558594 276.824219 166.613281 274.261719 169.902344 C 274.148438 170.050781 274.109375 170.21875 274.136719 170.425781 C 274.273438 171.480469 276.097656 172.875 276.117188 172.890625 C 276.179688 172.941406 276.207031 173.027344 276.175781 173.101562 C 276.144531 173.179688 276.0625 173.222656 275.980469 173.214844 C 272.675781 172.78125 263.984375 172.160156 263.472656 174.460938 C 263.414062 174.738281 263.476562 174.984375 263.667969 175.21875 C 265.234375 177.15625 274.042969 177.179688 274.347656 177.179688 C 274.355469 177.179688 274.355469 177.179688 274.355469 177.179688 Z M 274.355469 177.179688"/><path fill="#A068EF" d="M 290.414062 186.507812 C 290.414062 186.507812 328.148438 199.347656 336.082031 186.832031 C 343.890625 174.511719 333.109375 152.175781 324.972656 144.257812 C 323.726562 143.046875 322.726562 141.949219 321.734375 141.378906 C 321.734375 141.378906 313.503906 149.433594 312.730469 152.636719 C 311.710938 156.855469 319.6875 172.367188 319.6875 172.367188 L 290.605469 169.640625 Z M 290.414062 186.507812"/><path d="M 321.011719 192.535156 C 307.789062 192.535156 291.382812 187.027344 290.355469 186.679688 C 290.28125 186.652344 290.230469 186.582031 290.230469 186.503906 L 290.421875 169.640625 C 290.421875 169.589844 290.445312 169.539062 290.480469 169.507812 C 290.519531 169.472656 290.566406 169.457031 290.621094 169.460938 L 319.378906 172.15625 C 318.425781 170.265625 313.230469 159.789062 312.535156 154.585938 C 312.523438 154.484375 312.59375 154.394531 312.691406 154.378906 C 312.796875 154.363281 312.882812 154.4375 312.898438 154.535156 C 313.648438 160.179688 319.789062 172.164062 319.851562 172.285156 C 319.882812 172.34375 319.878906 172.414062 319.839844 172.46875 C 319.800781 172.523438 319.734375 172.550781 319.671875 172.550781 L 290.785156 169.839844 L 290.597656 186.378906 C 292.992188 187.171875 328.386719 198.632812 335.929688 186.734375 C 343.605469 174.621094 333.113281 152.433594 324.84375 144.386719 C 324.59375 144.144531 324.351562 143.902344 324.121094 143.671875 C 323.207031 142.765625 322.417969 141.980469 321.644531 141.535156 C 321.558594 141.484375 321.527344 141.375 321.578125 141.285156 C 321.628906 141.199219 321.742188 141.171875 321.828125 141.21875 C 322.640625 141.6875 323.445312 142.488281 324.375 143.414062 C 324.609375 143.644531 324.847656 143.882812 325.097656 144.125 C 333.441406 152.246094 344.011719 174.664062 336.234375 186.929688 C 333.578125 191.125 327.699219 192.535156 321.011719 192.535156 Z M 321.011719 192.535156"/><path fill="#FFF" d="M 320.191406 258.964844 C 320.570312 260.222656 320.867188 261.796875 319.886719 262.675781 C 319.339844 263.164062 318.527344 263.257812 317.816406 263.074219 C 317.109375 262.890625 316.488281 262.460938 315.921875 262 C 313.671875 260.160156 312.007812 257.613281 311.230469 254.816406 C 310.453125 252.019531 310.5625 248.980469 311.539062 246.246094 C 311.84375 245.394531 312.257812 244.535156 312.980469 243.992188 C 316.074219 241.652344 316.71875 247.425781 317.253906 249.207031 C 318.234375 252.460938 319.210938 255.710938 320.191406 258.964844 Z M 320.191406 258.964844" fill-opacity=".298"/><path fill="#FFF" d="M 324.574219 149.210938 C 326.84375 152.5 328.347656 156.3125 328.929688 160.265625 C 329.003906 160.785156 329.027344 161.40625 328.617188 161.734375 C 328.027344 162.203125 327.191406 161.648438 326.683594 161.09375 C 324.316406 158.488281 322.695312 155.207031 322.070312 151.742188 C 321.921875 150.917969 321.90625 149.898438 322.601562 149.429688 C 323.085938 149.105469 323.757812 149.191406 324.257812 149.492188 C 324.757812 149.792969 325.121094 150.265625 325.476562 150.730469" fill-opacity=".298"/><path fill="#FFF" d="M 311.347656 187.679688 C 311.289062 187.679688 311.226562 187.675781 311.167969 187.664062 C 309.390625 187.367188 307.6875 186.835938 306.105469 186.078125 C 305.5625 185.820312 305.332031 185.167969 305.59375 184.625 C 305.851562 184.082031 306.503906 183.851562 307.050781 184.113281 C 308.445312 184.777344 309.949219 185.25 311.527344 185.511719 C 312.121094 185.613281 312.523438 186.175781 312.421875 186.769531 C 312.335938 187.300781 311.871094 187.679688 311.347656 187.679688 Z M 311.347656 187.679688"/><path fill="#FFF" d="M 317.671875 187.679688 C 317.148438 187.679688 316.683594 187.300781 316.597656 186.765625 C 316.5 186.171875 316.902344 185.609375 317.496094 185.511719 C 320.550781 185.011719 323.375 183.765625 325.660156 181.917969 C 326.125 181.535156 326.816406 181.609375 327.195312 182.078125 C 327.574219 182.542969 327.503906 183.230469 327.035156 183.609375 C 324.457031 185.699219 321.28125 187.101562 317.851562 187.664062 C 317.792969 187.675781 317.730469 187.679688 317.671875 187.679688 Z M 317.671875 187.679688"/><path fill="#FFD8C8" d="M 306.640625 120.523438 C 306.640625 120.523438 306.71875 136.847656 306.695312 137.003906 C 306.390625 137.292969 306.011719 137.550781 305.589844 137.785156 C 302.8125 139.324219 296.8125 138.226562 294.542969 137.066406 L 294.675781 130.800781 C 283.359375 137.265625 281.871094 118.484375 285.777344 107.175781 C 286.335938 105.554688 287 104.132812 287.933594 102.941406 C 288.019531 102.832031 288.113281 102.722656 288.199219 102.613281 L 288.433594 102.761719 L 302.746094 111.800781 C 302.746094 111.800781 307.417969 108.65625 310.046875 112.222656 C 312.675781 115.789062 306.640625 120.523438 306.640625 120.523438 Z M 306.640625 120.523438"/><path fill="#FE8D7C" d="M 306.640625 120.523438 C 306.640625 120.523438 306.71875 136.847656 306.695312 137.003906 C 306.390625 137.292969 306.011719 137.550781 305.589844 137.785156 C 305.464844 137.589844 305.359375 137.386719 305.273438 137.175781 C 304.867188 136.203125 304.773438 135.128906 304.710938 134.078125 C 304.480469 130.574219 304.519531 127.046875 304.820312 123.542969 C 304.984375 121.558594 305.28125 119.472656 306.492188 117.898438 C 307 117.234375 307.644531 116.683594 308.140625 116.007812 C 308.625 115.328125 308.9375 114.441406 308.65625 113.65625 C 308.382812 112.898438 307.597656 112.410156 306.804688 112.253906 C 306.003906 112.097656 305.1875 112.207031 304.378906 112.277344 C 297.742188 112.859375 291.199219 111.039062 285.777344 107.175781 C 286.464844 105.609375 287 104.132812 287.933594 102.941406 C 288.097656 102.878906 288.261719 102.816406 288.433594 102.761719 L 302.746094 111.800781 C 302.746094 111.800781 307.417969 108.65625 310.046875 112.222656 C 312.675781 115.789062 306.640625 120.523438 306.640625 120.523438 Z M 306.640625 120.523438"/><path d="M 301.417969 138.558594 C 298.753906 138.558594 295.925781 137.980469 294.464844 137.230469 C 294.402344 137.199219 294.363281 137.136719 294.363281 137.066406 L 294.488281 131.09375 C 290.109375 133.179688 287.550781 131.691406 286.171875 130.050781 C 281.40625 124.386719 283.199219 109.035156 288.050781 102.503906 C 288.109375 102.425781 288.214844 102.410156 288.292969 102.457031 L 302.746094 111.582031 C 303.457031 111.144531 307.710938 108.75 310.195312 112.113281 C 312.769531 115.609375 307.535156 120.039062 306.828125 120.613281 C 306.839844 123.53125 306.894531 136.871094 306.875 137.023438 C 306.871094 137.066406 306.851562 137.105469 306.820312 137.132812 C 305.714844 138.160156 303.625 138.558594 301.417969 138.558594 Z M 294.730469 136.957031 C 297.320312 138.210938 304.195312 138.960938 306.515625 136.917969 C 306.527344 135.964844 306.484375 125.902344 306.460938 120.527344 C 306.460938 120.46875 306.488281 120.417969 306.53125 120.382812 C 306.589844 120.335938 312.394531 115.710938 309.902344 112.332031 C 307.40625 108.945312 302.894531 111.917969 302.847656 111.945312 C 302.789062 111.988281 302.710938 111.988281 302.648438 111.949219 L 288.242188 102.855469 C 283.535156 109.367188 281.804688 124.296875 286.449219 129.816406 C 288.375 132.105469 291.117188 132.382812 294.59375 130.636719 C 294.652344 130.609375 294.722656 130.613281 294.773438 130.644531 C 294.828125 130.679688 294.859375 130.738281 294.859375 130.804688 Z M 306.695312 137 L 306.699219 137 Z M 306.695312 137 L 306.699219 137 Z M 306.695312 137"/><path d="M 304.480469 115.988281 C 304.453125 115.988281 304.421875 115.980469 304.398438 115.96875 C 304.308594 115.921875 304.273438 115.8125 304.320312 115.722656 C 304.695312 114.988281 305.359375 114.421875 306.140625 114.160156 C 306.925781 113.898438 307.796875 113.953125 308.539062 114.3125 C 308.628906 114.355469 308.667969 114.460938 308.625 114.554688 C 308.582031 114.644531 308.472656 114.683594 308.382812 114.636719 C 307.722656 114.320312 306.949219 114.273438 306.257812 114.503906 C 305.566406 114.734375 304.976562 115.238281 304.640625 115.886719 C 304.609375 115.953125 304.546875 115.988281 304.480469 115.988281 Z M 304.480469 115.988281"/><path fill="#003144" d="M 286.191406 104.609375 C 286.144531 104.761719 286.105469 104.921875 286.078125 105.089844 C 285.425781 108.734375 302.746094 111.796875 302.746094 111.796875 L 301.414062 107.476562 L 300.804688 105.5 L 295.894531 102.859375 L 290.808594 101.492188 C 290.808594 101.492188 287.097656 101.445312 286.191406 104.609375 Z M 286.191406 104.609375"/><path fill="#05253F" d="M 286.191406 104.609375 C 286.144531 104.761719 286.105469 104.921875 286.078125 105.089844 C 285.425781 108.734375 302.746094 111.796875 302.746094 111.796875 L 306.015625 108.441406 C 304.910156 108.664062 302.230469 106.402344 301.109375 106.484375 C 298.296875 106.683594 292.398438 107.53125 289.957031 106.132812 C 288.773438 105.457031 287.585938 104.582031 286.226562 104.632812 C 286.214844 104.625 286.203125 104.621094 286.191406 104.609375 Z M 286.191406 104.609375"/><path d="M 302.746094 111.976562 C 302.734375 111.976562 302.726562 111.976562 302.714844 111.976562 C 302.132812 111.871094 288.441406 109.421875 286.203125 106.21875 C 285.933594 105.832031 285.832031 105.441406 285.902344 105.054688 C 285.917969 104.957031 286.011719 104.890625 286.113281 104.910156 C 286.210938 104.925781 286.277344 105.019531 286.257812 105.121094 C 286.207031 105.410156 286.285156 105.703125 286.503906 106.011719 C 288.65625 109.089844 302.636719 111.59375 302.777344 111.617188 C 302.878906 111.636719 302.941406 111.730469 302.925781 111.828125 C 302.910156 111.914062 302.832031 111.976562 302.746094 111.976562 Z M 302.746094 111.976562"/><path d="M 295.945312 117.050781 C 295.945312 117.1875 295.917969 117.320312 295.867188 117.449219 C 295.8125 117.578125 295.738281 117.691406 295.640625 117.785156 C 295.542969 117.882812 295.429688 117.960938 295.304688 118.011719 C 295.175781 118.066406 295.042969 118.089844 294.90625 118.089844 C 294.765625 118.089844 294.632812 118.066406 294.507812 118.011719 C 294.378906 117.960938 294.265625 117.882812 294.167969 117.785156 C 294.070312 117.691406 293.996094 117.578125 293.941406 117.449219 C 293.890625 117.320312 293.863281 117.1875 293.863281 117.050781 C 293.863281 116.914062 293.890625 116.78125 293.941406 116.652344 C 293.996094 116.527344 294.070312 116.414062 294.167969 116.316406 C 294.265625 116.21875 294.378906 116.144531 294.507812 116.089844 C 294.632812 116.039062 294.765625 116.011719 294.90625 116.011719 C 295.042969 116.011719 295.175781 116.039062 295.304688 116.089844 C 295.429688 116.144531 295.542969 116.21875 295.640625 116.316406 C 295.738281 116.414062 295.8125 116.527344 295.867188 116.652344 C 295.917969 116.78125 295.945312 116.914062 295.945312 117.050781 Z M 295.945312 117.050781"/><path d="M 287.800781 115.527344 C 287.800781 115.664062 287.773438 115.796875 287.722656 115.921875 C 287.667969 116.050781 287.59375 116.164062 287.496094 116.261719 C 287.398438 116.359375 287.285156 116.433594 287.15625 116.488281 C 287.03125 116.539062 286.898438 116.566406 286.757812 116.566406 C 286.621094 116.566406 286.488281 116.539062 286.359375 116.488281 C 286.234375 116.433594 286.121094 116.359375 286.023438 116.261719 C 285.925781 116.164062 285.851562 116.050781 285.796875 115.921875 C 285.742188 115.796875 285.71875 115.664062 285.71875 115.527344 C 285.71875 115.386719 285.742188 115.253906 285.796875 115.128906 C 285.851562 115 285.925781 114.886719 286.023438 114.789062 C 286.121094 114.691406 286.234375 114.617188 286.359375 114.5625 C 286.488281 114.511719 286.621094 114.484375 286.757812 114.484375 C 286.898438 114.484375 287.03125 114.511719 287.15625 114.5625 C 287.285156 114.617188 287.398438 114.691406 287.496094 114.789062 C 287.59375 114.886719 287.667969 115 287.722656 115.128906 C 287.773438 115.253906 287.800781 115.386719 287.800781 115.527344 Z M 287.800781 115.527344"/><path d="M 289.800781 122.15625 C 289.796875 122.15625 289.792969 122.15625 289.789062 122.15625 C 289.199219 122.113281 288.808594 121.582031 288.695312 121.105469 C 288.578125 120.609375 288.675781 120.101562 288.761719 119.65625 L 289.925781 113.570312 C 289.945312 113.46875 290.042969 113.40625 290.140625 113.425781 C 290.238281 113.441406 290.304688 113.539062 290.285156 113.636719 L 289.121094 119.722656 C 289.039062 120.136719 288.949219 120.601562 289.050781 121.023438 C 289.136719 121.386719 289.425781 121.765625 289.8125 121.792969 C 289.914062 121.800781 289.988281 121.886719 289.980469 121.988281 C 289.976562 122.082031 289.894531 122.15625 289.800781 122.15625 Z M 289.800781 122.15625"/><path d="M 292.277344 125.835938 C 291.4375 125.835938 290.597656 125.554688 289.949219 125.003906 C 289.875 124.941406 289.863281 124.824219 289.929688 124.75 C 289.996094 124.671875 290.109375 124.664062 290.1875 124.726562 C 291.214844 125.601562 292.796875 125.722656 293.945312 125.011719 C 294.03125 124.960938 294.144531 124.988281 294.195312 125.070312 C 294.25 125.15625 294.222656 125.269531 294.136719 125.320312 C 293.578125 125.667969 292.929688 125.835938 292.277344 125.835938 Z M 292.277344 125.835938"/><path d="M 293.539062 113.597656 C 293.398438 114.039062 293.792969 114.546875 294.421875 114.734375 L 296.03125 115.21875 C 296.65625 115.40625 297.277344 115.199219 297.417969 114.757812 C 297.558594 114.320312 297.164062 113.808594 296.535156 113.621094 L 294.925781 113.140625 C 294.300781 112.953125 293.675781 113.15625 293.539062 113.597656 Z M 293.539062 113.597656"/><path d="M 284.753906 112.175781 C 284.683594 112.632812 285.152344 113.078125 285.800781 113.164062 L 287.464844 113.390625 C 288.113281 113.480469 288.695312 113.179688 288.765625 112.722656 C 288.835938 112.265625 288.367188 111.824219 287.71875 111.734375 L 286.050781 111.507812 C 285.402344 111.421875 284.820312 111.71875 284.753906 112.175781 Z M 284.753906 112.175781"/></svg>